G04*
G04 #@! TF.GenerationSoftware,Altium Limited,Altium Designer,20.2.5 (213)*
G04*
G04 Layer_Color=16711935*
%FSLAX44Y44*%
%MOMM*%
G71*
G04*
G04 #@! TF.SameCoordinates,930A2EF1-4135-481E-B3E8-EEE05B8073E9*
G04*
G04*
G04 #@! TF.FilePolarity,Negative*
G04*
G01*
G75*
%ADD17R,1.2532X1.2532*%
%ADD18C,1.2532*%
%ADD19C,1.7272*%
%ADD20C,1.3332*%
%ADD21R,1.3332X1.3332*%
%ADD22R,1.8532X1.8532*%
%ADD23C,1.8532*%
%ADD24R,1.8532X1.8532*%
%ADD25C,1.6032*%
%ADD26C,1.7032*%
%ADD27R,1.7032X1.7032*%
%ADD28C,1.8032*%
%ADD29R,1.5532X1.5532*%
%ADD30C,1.5532*%
%ADD31R,1.8032X1.8032*%
%ADD32C,1.8032*%
%ADD33O,1.2032X2.2032*%
%ADD34O,1.2032X2.2032*%
%ADD35R,1.6032X1.6032*%
%ADD36R,1.7032X1.7032*%
D17*
X223520Y121920D02*
D03*
D18*
Y109220D02*
D03*
Y96520D02*
D03*
D19*
X25400Y22860D02*
D03*
X487350Y23597D02*
D03*
X487956Y590318D02*
D03*
X24460Y590951D02*
D03*
D20*
X292100Y500380D02*
D03*
Y525780D02*
D03*
Y551180D02*
D03*
X368300D02*
D03*
Y525780D02*
D03*
D21*
Y500380D02*
D03*
D22*
X352590Y200260D02*
D03*
D23*
X402590Y175260D02*
D03*
X352590Y150260D02*
D03*
X421640Y413150D02*
D03*
X396640Y463150D02*
D03*
D24*
X446640D02*
D03*
D25*
X306070Y388620D02*
D03*
X229870D02*
D03*
X209550Y44450D02*
D03*
X285750D02*
D03*
X163830Y537210D02*
D03*
X265430D02*
D03*
X81280Y431800D02*
D03*
X182880D02*
D03*
X336550Y367030D02*
D03*
X412750D02*
D03*
Y317500D02*
D03*
Y241300D02*
D03*
X177800Y165100D02*
D03*
X101600D02*
D03*
X177800Y135890D02*
D03*
X101600D02*
D03*
X52070Y168910D02*
D03*
Y245110D02*
D03*
X187960Y375920D02*
D03*
Y299720D02*
D03*
X153670Y322580D02*
D03*
D26*
X304800Y163830D02*
D03*
Y189230D02*
D03*
Y214630D02*
D03*
Y240030D02*
D03*
Y265430D02*
D03*
Y290830D02*
D03*
Y316230D02*
D03*
X228600Y163830D02*
D03*
Y189230D02*
D03*
Y214630D02*
D03*
Y240030D02*
D03*
Y265430D02*
D03*
Y290830D02*
D03*
X52070Y139640D02*
D03*
D27*
X228600Y316230D02*
D03*
D28*
X100330Y241300D02*
D03*
X227330Y420370D02*
D03*
X100330Y537210D02*
D03*
X96520Y488950D02*
D03*
X402590Y104140D02*
D03*
D29*
X333610Y90170D02*
D03*
D30*
X283610Y90170D02*
D03*
D31*
X153790Y471170D02*
D03*
D32*
X176590D02*
D03*
X199390D02*
D03*
D33*
X308610Y422910D02*
D03*
X334010D02*
D03*
D34*
X321310D02*
D03*
D35*
X153670Y347980D02*
D03*
D36*
X52070Y68640D02*
D03*
M02*
