G04*
G04 #@! TF.GenerationSoftware,Altium Limited,Altium Designer,20.2.5 (213)*
G04*
G04 Layer_Color=32768*
%FSLAX44Y44*%
%MOMM*%
G71*
G04*
G04 #@! TF.SameCoordinates,930A2EF1-4135-481E-B3E8-EEE05B8073E9*
G04*
G04*
G04 #@! TF.FilePolarity,Positive*
G04*
G01*
G75*
%ADD60C,0.1000*%
%ADD61C,0.0500*%
D60*
X223520Y104220D02*
Y114220D01*
X218520Y109220D02*
X228520D01*
X266700Y235030D02*
Y245030D01*
X261700Y240030D02*
X271700D01*
X176590Y466170D02*
Y476170D01*
X171590Y471170D02*
X181590D01*
X316310Y422910D02*
X326310D01*
X321310Y417910D02*
Y427910D01*
X148670Y335280D02*
X158670D01*
X153670Y330280D02*
Y340280D01*
D61*
X248020Y84720D02*
Y133720D01*
X209170D02*
X248020D01*
X209170Y84720D02*
X248020D01*
X209170D02*
Y133720D01*
X283900Y572780D02*
X376500D01*
X283900Y478780D02*
Y572780D01*
Y478780D02*
X376500D01*
Y572780D01*
X328090Y138760D02*
Y211760D01*
X414090D01*
Y138760D02*
Y211760D01*
X328090Y138760D02*
X414090D01*
X385140Y487650D02*
X458140D01*
Y401650D02*
Y487650D01*
X385140Y401650D02*
X458140D01*
X385140D02*
Y487650D01*
X218200Y139030D02*
X315200D01*
X218200Y341030D02*
X315200D01*
Y139030D02*
Y341030D01*
X218200Y139030D02*
Y341030D01*
X84130Y225850D02*
Y256750D01*
Y225850D02*
X116530D01*
Y256750D01*
X84130D02*
X116530D01*
X100330Y236300D02*
Y246300D01*
X95330Y241300D02*
X105330D01*
X211130Y404920D02*
Y435820D01*
Y404920D02*
X243530D01*
Y435820D01*
X211130D02*
X243530D01*
X227330Y415370D02*
Y425370D01*
X222330Y420370D02*
X232330D01*
X140970Y310930D02*
Y359630D01*
X166370Y310930D02*
Y359630D01*
X140970Y310930D02*
X166370D01*
X140970Y359630D02*
X166370D01*
X84880Y521010D02*
X115780D01*
Y553410D01*
X84880D02*
X115780D01*
X84880Y521010D02*
Y553410D01*
X95330Y537210D02*
X105330D01*
X100330Y532210D02*
Y542210D01*
X81070Y472750D02*
X111970D01*
Y505150D01*
X81070D02*
X111970D01*
X81070Y472750D02*
Y505150D01*
X91520Y488950D02*
X101520D01*
X96520Y483950D02*
Y493950D01*
X397590Y104140D02*
X407590D01*
X402590Y99140D02*
Y109140D01*
X386390Y88690D02*
X418790D01*
X386390D02*
Y119590D01*
X418790D01*
Y88690D02*
Y119590D01*
M02*
