G04*
G04 #@! TF.GenerationSoftware,Altium Limited,Altium Designer,20.2.5 (213)*
G04*
G04 Layer_Color=16711935*
%FSLAX44Y44*%
%MOMM*%
G71*
G04*
G04 #@! TF.SameCoordinates,930A2EF1-4135-481E-B3E8-EEE05B8073E9*
G04*
G04*
G04 #@! TF.FilePolarity,Positive*
G04*
G01*
G75*
%ADD10C,0.2000*%
%ADD14C,0.1270*%
%ADD60C,0.1000*%
D10*
X325590Y200260D02*
G03*
X325590Y200260I-1000J0D01*
G01*
X447640Y491150D02*
G03*
X447640Y491150I-1000J0D01*
G01*
D14*
X297200Y570280D02*
X363200D01*
X297200Y481280D02*
Y570280D01*
Y481280D02*
X363200D01*
Y570280D01*
X335090Y141210D02*
X397590D01*
X411590Y155260D01*
Y193960D01*
X396190Y209310D02*
X411590Y193960D01*
X335090Y209310D02*
X396190D01*
X335090Y187960D02*
Y209310D01*
Y162560D02*
Y187960D01*
Y141210D02*
Y162560D01*
X330590Y141210D02*
X335090D01*
X330590D02*
Y162560D01*
X335090D01*
X330590Y187960D02*
X335090D01*
X330590D02*
Y209310D01*
X335090D01*
X387590Y418150D02*
Y480650D01*
Y418150D02*
X401640Y404150D01*
X440340D01*
X455690Y419550D01*
Y480650D01*
X434340D02*
X455690D01*
X408940D02*
X434340D01*
X387590D02*
X408940D01*
X387590D02*
Y485150D01*
X408940D01*
Y480650D02*
Y485150D01*
X434340Y480650D02*
Y485150D01*
X455690D01*
Y480650D02*
Y485150D01*
D60*
X210168Y89881D02*
G03*
X210165Y128557I13352J19339D01*
G01*
X245200Y329530D02*
G03*
X245200Y329530I-5000J0D01*
G01*
X341110Y407910D02*
G03*
X301510Y407910I-19800J15000D01*
G01*
X210170Y89883D02*
Y128557D01*
X231200Y141530D02*
X302200D01*
X231200Y338530D02*
X302200D01*
Y141530D02*
Y338530D01*
X231200Y141530D02*
Y338530D01*
X87630Y228600D02*
Y254000D01*
Y228600D02*
X113030D01*
Y254000D01*
X87630D02*
X113030D01*
X214630Y407670D02*
Y433070D01*
Y407670D02*
X240030D01*
Y433070D01*
X214630D02*
X240030D01*
X142590Y460170D02*
X210590D01*
Y484170D01*
X142590Y460170D02*
Y484170D01*
Y484170D02*
X210590D01*
X142590Y477670D02*
X210590D01*
X301510Y407910D02*
X341110D01*
X165370Y311930D02*
Y358630D01*
X141970D02*
X165370D01*
X141970Y311930D02*
Y358630D01*
X87630Y524510D02*
X113030D01*
Y549910D01*
X87630D02*
X113030D01*
X87630Y524510D02*
Y549910D01*
X83820Y476250D02*
X109220D01*
Y501650D01*
X83820D02*
X109220D01*
X83820Y476250D02*
Y501650D01*
X389890Y91440D02*
X415290D01*
X389890D02*
Y116840D01*
X415290D01*
Y91440D02*
Y116840D01*
M02*
