G04*
G04 #@! TF.GenerationSoftware,Altium Limited,Altium Designer,20.2.5 (213)*
G04*
G04 Layer_Color=65535*
%FSLAX44Y44*%
%MOMM*%
G71*
G04*
G04 #@! TF.SameCoordinates,930A2EF1-4135-481E-B3E8-EEE05B8073E9*
G04*
G04*
G04 #@! TF.FilePolarity,Positive*
G04*
G01*
G75*
%ADD10C,0.2000*%
%ADD11C,0.2500*%
%ADD12C,0.2400*%
%ADD13C,0.6000*%
%ADD14C,0.1270*%
%ADD15C,0.2540*%
%ADD16R,1.9000X0.8000*%
D10*
X210168Y89881D02*
G03*
X210165Y128557I13352J19339D01*
G01*
X325590Y200260D02*
G03*
X325590Y200260I-1000J0D01*
G01*
X447640Y491150D02*
G03*
X447640Y491150I-1000J0D01*
G01*
X260350Y338530D02*
G03*
X273050Y338530I6350J0D01*
G01*
X325475Y100920D02*
G03*
X290421Y98487I-16865J-10750D01*
G01*
Y81853D02*
G03*
X325475Y79420I18189J8317D01*
G01*
X341110Y407910D02*
G03*
X301510Y407910I-19800J15000D01*
G01*
X210170Y89883D02*
Y128557D01*
X293370Y388620D02*
Y396240D01*
X242570D02*
X293370D01*
X242570Y381000D02*
Y396240D01*
Y381000D02*
X293370D01*
Y388620D01*
X240284D02*
X242570D01*
X293370D02*
X295656D01*
X222250Y36830D02*
Y44450D01*
Y36830D02*
X273050D01*
Y52070D01*
X222250D02*
X273050D01*
X222250Y44450D02*
Y52070D01*
X273050Y44450D02*
X275336D01*
X219964D02*
X222250D01*
X173990Y537210D02*
X184150D01*
X245110D02*
X255270D01*
X184150Y547370D02*
X245110D01*
X184150Y527050D02*
Y547370D01*
Y527050D02*
X245110D01*
Y547370D01*
X240200Y141530D02*
X293200D01*
X273050Y338530D02*
X293200D01*
X240200D02*
X260350D01*
X293200Y141530D02*
Y338530D01*
X240200Y141530D02*
Y338530D01*
X86130Y227850D02*
X114530D01*
X86130D02*
Y254750D01*
X114530D01*
Y227850D02*
Y254750D01*
X213130Y406920D02*
X241530D01*
X213130D02*
Y433820D01*
X241530D01*
Y406920D02*
Y433820D01*
X91440Y431800D02*
X101600D01*
X162560D02*
X172720D01*
X101600Y441960D02*
X162560D01*
X101600Y421640D02*
Y441960D01*
Y421640D02*
X162560D01*
Y441960D01*
X349250Y359410D02*
Y367030D01*
Y359410D02*
X400050D01*
Y374650D01*
X349250D02*
X400050D01*
X349250Y367030D02*
Y374650D01*
X400050Y367030D02*
X402336D01*
X346964D02*
X349250D01*
X405130Y304800D02*
X412750D01*
X405130Y254000D02*
Y304800D01*
Y254000D02*
X420370D01*
Y304800D01*
X412750D02*
X420370D01*
X412750Y251714D02*
Y254000D01*
Y304800D02*
Y307086D01*
X112014Y165100D02*
X114300D01*
X165100D02*
X167386D01*
X114300D02*
Y172720D01*
X165100D01*
Y157480D02*
Y172720D01*
X114300Y157480D02*
X165100D01*
X114300D02*
Y165100D01*
X112014Y135890D02*
X114300D01*
X165100D02*
X167386D01*
X114300D02*
Y143510D01*
X165100D01*
Y128270D02*
Y143510D01*
X114300Y128270D02*
X165100D01*
X114300D02*
Y135890D01*
X52070Y232410D02*
Y234696D01*
Y179324D02*
Y181610D01*
Y232410D02*
X59690D01*
Y181610D02*
Y232410D01*
X44450Y181610D02*
X59690D01*
X44450D02*
Y232410D01*
X52070D01*
X187960Y310134D02*
Y312420D01*
Y363220D02*
Y365506D01*
X180340Y312420D02*
X187960D01*
X180340D02*
Y363220D01*
X195580D01*
Y312420D02*
Y363220D01*
X187960Y312420D02*
X195580D01*
X142590Y460170D02*
X143090D01*
X210090D02*
X210590D01*
X187090D02*
X189090D01*
X164090D02*
X166090D01*
X142590Y483270D02*
X210590D01*
X142590Y484170D02*
X210590D01*
X142590Y481170D02*
Y484170D01*
X210590Y481170D02*
Y484170D01*
X301510Y407910D02*
X341110D01*
X165370Y311930D02*
Y358630D01*
X141970Y311930D02*
Y358630D01*
X113780Y523010D02*
Y551410D01*
X86880Y523010D02*
X113780D01*
X86880D02*
Y551410D01*
X113780D01*
X109970Y474750D02*
Y503150D01*
X83070Y474750D02*
X109970D01*
X83070D02*
Y503150D01*
X109970D01*
X388390Y90690D02*
Y117590D01*
Y90690D02*
X416790D01*
Y117590D01*
X388390D02*
X416790D01*
X42570Y84640D02*
Y123640D01*
X61570Y84640D02*
Y123640D01*
X42570D02*
X61570D01*
D11*
X224770Y138720D02*
G03*
X224770Y138720I-1250J0D01*
G01*
X229850Y329230D02*
G03*
X229850Y329230I-1250J0D01*
G01*
X139340Y455170D02*
G03*
X139340Y455170I-1250J0D01*
G01*
X294260Y409410D02*
G03*
X294260Y409410I-1250J0D01*
G01*
X173120Y347980D02*
G03*
X173120Y347980I-1250J0D01*
G01*
D12*
X381400Y498780D02*
G03*
X381400Y498780I-1200J0D01*
G01*
D13*
X253200Y328530D02*
G03*
X253200Y328530I-3000J0D01*
G01*
D14*
X297200Y560780D02*
Y570280D01*
X363200D01*
Y560780D02*
Y570280D01*
X297200Y481280D02*
Y490780D01*
Y481280D02*
X363200D01*
Y490780D01*
X364040Y141210D02*
X397590D01*
X411590Y155260D01*
Y163760D01*
Y186760D02*
Y193960D01*
X396190Y209310D02*
X411590Y193960D01*
X364040Y209310D02*
X396190D01*
X330590Y141210D02*
X341140D01*
X330590D02*
Y162560D01*
X335090D01*
Y187960D01*
X330590D02*
X335090D01*
X330590D02*
Y209310D01*
X341140D01*
X387590Y418150D02*
Y451700D01*
Y418150D02*
X401640Y404150D01*
X410140D01*
X433140D02*
X440340D01*
X455690Y419550D01*
Y451700D01*
X387590Y474600D02*
Y485150D01*
X408940D01*
Y480650D02*
Y485150D01*
Y480650D02*
X434340D01*
Y485150D01*
X455690D01*
Y474600D02*
Y485150D01*
D15*
X258444Y128400D02*
X268601D01*
X271140Y130940D01*
Y136018D01*
X268601Y138557D01*
X258444D01*
X255905Y136018D01*
Y130940D01*
X260983Y133479D02*
X255905Y128400D01*
Y130940D02*
X258444Y128400D01*
X255905Y123322D02*
Y118244D01*
Y120783D01*
X271140D01*
X268601Y123322D01*
X308614Y590547D02*
Y577852D01*
X311153Y575312D01*
X316232D01*
X318771Y577852D01*
Y590547D01*
X334006Y575312D02*
X323849D01*
X334006Y585469D01*
Y588008D01*
X331467Y590547D01*
X326388D01*
X323849Y588008D01*
X325139Y219583D02*
Y234818D01*
X332757D01*
X335296Y232279D01*
Y227201D01*
X332757Y224661D01*
X325139D01*
X330217D02*
X335296Y219583D01*
X340374D02*
X345452D01*
X342913D01*
Y234818D01*
X340374Y232279D01*
X363227Y219583D02*
X353070D01*
X363227Y229740D01*
Y232279D01*
X360687Y234818D01*
X355609D01*
X353070Y232279D01*
X459743Y462275D02*
X474977D01*
Y454657D01*
X472438Y452118D01*
X467360D01*
X464821Y454657D01*
Y462275D01*
Y457196D02*
X459743Y452118D01*
Y447040D02*
Y441961D01*
Y444500D01*
X474977D01*
X472438Y447040D01*
X459743Y434344D02*
Y429265D01*
Y431805D01*
X474977D01*
X472438Y434344D01*
X355606Y378462D02*
Y393698D01*
X363224D01*
X365763Y391158D01*
Y386080D01*
X363224Y383541D01*
X355606D01*
X360685D02*
X365763Y378462D01*
X370841D02*
X375920D01*
X373380D01*
Y393698D01*
X370841Y391158D01*
X383537D02*
X386076Y393698D01*
X391155D01*
X393694Y391158D01*
Y381002D01*
X391155Y378462D01*
X386076D01*
X383537Y381002D01*
Y391158D01*
X193929Y38481D02*
X178694D01*
Y46098D01*
X181233Y48638D01*
X186311D01*
X188851Y46098D01*
Y38481D01*
Y43559D02*
X193929Y48638D01*
X191390Y53716D02*
X193929Y56255D01*
Y61334D01*
X191390Y63873D01*
X181233D01*
X178694Y61334D01*
Y56255D01*
X181233Y53716D01*
X183772D01*
X186311Y56255D01*
Y63873D01*
X191774Y551183D02*
Y566418D01*
X199392D01*
X201931Y563878D01*
Y558800D01*
X199392Y556261D01*
X191774D01*
X196852D02*
X201931Y551183D01*
X207009Y566418D02*
X217166D01*
Y563878D01*
X207009Y553722D01*
Y551183D01*
X220599Y364104D02*
Y351408D01*
X223138Y348869D01*
X228216D01*
X230756Y351408D01*
Y364104D01*
X235834Y348869D02*
X240912D01*
X238373D01*
Y364104D01*
X235834Y361565D01*
X96644Y279776D02*
X91565D01*
X94104D01*
Y267080D01*
X91565Y264541D01*
X89026D01*
X86487Y267080D01*
X111879Y279776D02*
X101722D01*
Y272159D01*
X106800Y274698D01*
X109340D01*
X111879Y272159D01*
Y267080D01*
X109340Y264541D01*
X104261D01*
X101722Y267080D01*
X223644Y458846D02*
X218565D01*
X221105D01*
Y446150D01*
X218565Y443611D01*
X216026D01*
X213487Y446150D01*
X236340Y443611D02*
Y458846D01*
X228722Y451228D01*
X238879D01*
X118114Y402593D02*
Y417827D01*
X125732D01*
X128271Y415288D01*
Y410210D01*
X125732Y407671D01*
X118114D01*
X123193D02*
X128271Y402593D01*
X133349Y415288D02*
X135888Y417827D01*
X140967D01*
X143506Y415288D01*
Y412749D01*
X140967Y410210D01*
X143506Y407671D01*
Y405132D01*
X140967Y402593D01*
X135888D01*
X133349Y405132D01*
Y407671D01*
X135888Y410210D01*
X133349Y412749D01*
Y415288D01*
X135888Y410210D02*
X140967D01*
X259084Y400052D02*
Y415288D01*
X266702D01*
X269241Y412748D01*
Y407670D01*
X266702Y405131D01*
X259084D01*
X264163D02*
X269241Y400052D01*
X284476Y415288D02*
X279398Y412748D01*
X274319Y407670D01*
Y402592D01*
X276858Y400052D01*
X281937D01*
X284476Y402592D01*
Y405131D01*
X281937Y407670D01*
X274319D01*
X406781Y333121D02*
Y348356D01*
X414398D01*
X416938Y345817D01*
Y340738D01*
X414398Y338199D01*
X406781D01*
X411859D02*
X416938Y333121D01*
X432173Y348356D02*
X422016D01*
Y340738D01*
X427094Y343278D01*
X429634D01*
X432173Y340738D01*
Y335660D01*
X429634Y333121D01*
X424555D01*
X422016Y335660D01*
X128274Y175263D02*
Y190497D01*
X135892D01*
X138431Y187958D01*
Y182880D01*
X135892Y180341D01*
X128274D01*
X133352D02*
X138431Y175263D01*
X151127D02*
Y190497D01*
X143509Y182880D01*
X153666D01*
X120654Y110492D02*
Y125728D01*
X128272D01*
X130811Y123188D01*
Y118110D01*
X128272Y115571D01*
X120654D01*
X125732D02*
X130811Y110492D01*
X135889Y123188D02*
X138428Y125728D01*
X143507D01*
X146046Y123188D01*
Y120649D01*
X143507Y118110D01*
X140968D01*
X143507D01*
X146046Y115571D01*
Y113032D01*
X143507Y110492D01*
X138428D01*
X135889Y113032D01*
X46101Y260731D02*
Y275966D01*
X53719D01*
X56258Y273427D01*
Y268349D01*
X53719Y265809D01*
X46101D01*
X51179D02*
X56258Y260731D01*
X71493D02*
X61336D01*
X71493Y270888D01*
Y273427D01*
X68954Y275966D01*
X63875D01*
X61336Y273427D01*
X193929Y284099D02*
Y268864D01*
X186311D01*
X183772Y271403D01*
Y276481D01*
X186311Y279021D01*
X193929D01*
X188851D02*
X183772Y284099D01*
X178694D02*
X173616D01*
X176155D01*
Y268864D01*
X178694Y271403D01*
X267968Y88900D02*
X270508Y91439D01*
Y96517D01*
X267968Y99057D01*
X257812D01*
X255273Y96517D01*
Y91439D01*
X257812Y88900D01*
X255273Y83822D02*
Y78743D01*
Y81282D01*
X270508D01*
X267968Y83822D01*
X184151Y490222D02*
Y500378D01*
X181612Y502918D01*
X176533D01*
X173994Y500378D01*
Y490222D01*
X176533Y487682D01*
X181612D01*
X179072Y492761D02*
X184151Y487682D01*
X181612D02*
X184151Y490222D01*
X196847Y487682D02*
Y502918D01*
X189229Y495300D01*
X199386D01*
X361951Y406402D02*
Y416558D01*
X359412Y419098D01*
X354333D01*
X351794Y416558D01*
Y406402D01*
X354333Y403862D01*
X359412D01*
X356872Y408941D02*
X361951Y403862D01*
X359412D02*
X361951Y406402D01*
X377186Y403862D02*
X367029D01*
X377186Y414019D01*
Y416558D01*
X374647Y419098D01*
X369568D01*
X367029Y416558D01*
X142243Y363223D02*
Y378457D01*
X149861D01*
X152400Y375918D01*
Y370840D01*
X149861Y368301D01*
X142243D01*
X157478Y363223D02*
X162557D01*
X160018D01*
Y378457D01*
X157478Y375918D01*
X64773Y537211D02*
Y532132D01*
Y534672D01*
X77468D01*
X80007Y532132D01*
Y529593D01*
X77468Y527054D01*
X67312Y542289D02*
X64773Y544828D01*
Y549907D01*
X67312Y552446D01*
X69851D01*
X72390Y549907D01*
Y547368D01*
Y549907D01*
X74929Y552446D01*
X77468D01*
X80007Y549907D01*
Y544828D01*
X77468Y542289D01*
X60963Y487681D02*
Y482603D01*
Y485142D01*
X73658D01*
X76198Y482603D01*
Y480063D01*
X73658Y477524D01*
X76198Y502916D02*
Y492759D01*
X66041Y502916D01*
X63502D01*
X60963Y500377D01*
Y495298D01*
X63502Y492759D01*
X403860Y85087D02*
X398782D01*
X401321D01*
Y72392D01*
X398782Y69852D01*
X396242D01*
X393703Y72392D01*
X408938Y69852D02*
X414017D01*
X411478D01*
Y85087D01*
X408938Y82548D01*
X60071Y37216D02*
Y52451D01*
X52453D01*
X49914Y49912D01*
Y39755D01*
X52453Y37216D01*
X60071D01*
X44836Y52451D02*
X39758D01*
X42297D01*
Y37216D01*
X44836Y39755D01*
D16*
X52070Y87640D02*
D03*
M02*
