G04*
G04 #@! TF.GenerationSoftware,Altium Limited,Altium Designer,20.2.5 (213)*
G04*
G04 Layer_Physical_Order=2*
G04 Layer_Color=16711680*
%FSLAX44Y44*%
%MOMM*%
G71*
G04*
G04 #@! TF.SameCoordinates,930A2EF1-4135-481E-B3E8-EEE05B8073E9*
G04*
G04*
G04 #@! TF.FilePolarity,Positive*
G04*
G01*
G75*
%ADD37C,0.5080*%
%ADD38R,1.0500X1.0500*%
%ADD39C,1.0500*%
%ADD40C,1.5240*%
%ADD41C,1.1300*%
%ADD42R,1.1300X1.1300*%
%ADD43R,1.6500X1.6500*%
%ADD44C,1.6500*%
%ADD45R,1.6500X1.6500*%
%ADD46C,1.4000*%
%ADD47C,1.5000*%
%ADD48R,1.5000X1.5000*%
%ADD49C,1.6000*%
%ADD50R,1.3500X1.3500*%
%ADD51C,1.3500*%
%ADD52R,1.6000X1.6000*%
%ADD53C,1.6000*%
%ADD54O,1.0000X2.0000*%
%ADD55O,1.0000X2.0000*%
%ADD56R,1.4000X1.4000*%
%ADD57R,1.5000X1.5000*%
%ADD58C,1.1430*%
%ADD59C,0.6350*%
D37*
X265430Y503356D02*
X268406Y500380D01*
X421640Y413150D02*
Y497404D01*
X369570Y500380D02*
X418664D01*
X421640Y497404D01*
X446640Y370006D02*
Y463150D01*
X412750Y367030D02*
X443664D01*
X446640Y370006D01*
X349250Y505460D02*
X369570Y525780D01*
X304800Y240030D02*
X305435Y240665D01*
X412115D01*
X412750Y241300D01*
X402590Y104140D02*
Y175260D01*
X147756Y29210D02*
X441524D01*
X412750Y241300D02*
X444500Y209550D01*
Y32186D02*
Y209550D01*
X441524Y29210D02*
X444500Y32186D01*
X209550Y44450D02*
Y93544D01*
X212526Y96520D02*
X223520D01*
X209550Y93544D02*
X212526Y96520D01*
X177800Y165100D02*
X180214D01*
X223520Y121920D02*
X276860D01*
X207446D02*
X223520D01*
X276860D02*
Y262454D01*
Y115570D02*
Y121920D01*
X204470Y124896D02*
Y160854D01*
Y124896D02*
X207446Y121920D01*
X179070Y163830D02*
X201494D01*
X204470Y160854D01*
X177800Y165100D02*
X179070Y163830D01*
X177800Y112196D02*
Y135890D01*
X180776Y109220D02*
X223520D01*
X177800Y112196D02*
X180776Y109220D01*
X144780Y32186D02*
Y233680D01*
Y32186D02*
X147756Y29210D01*
X349250Y425360D02*
Y505460D01*
X335280Y421640D02*
X345530D01*
X349250Y425360D01*
X321310Y382270D02*
X336550Y367030D01*
X321310Y382270D02*
Y422910D01*
X304800Y316230D02*
X305435Y316865D01*
X412115D01*
X412750Y317500D01*
Y367030D01*
X153670Y322580D02*
X174823Y301427D01*
X186253D01*
X187960Y299720D01*
X199264Y290830D02*
X228600D01*
X190374Y299720D02*
X199264Y290830D01*
X187960Y299720D02*
X190374D01*
X100965Y240665D02*
X101600Y240030D01*
X100330Y241300D02*
X100965Y240665D01*
X138430Y240030D02*
X144780Y233680D01*
X101600Y240030D02*
X138430D01*
X157480Y268406D02*
Y284480D01*
X160456Y265430D02*
X228600D01*
X157480Y268406D02*
X160456Y265430D01*
X152400Y289560D02*
X154932Y287028D01*
X157480Y284480D01*
X44450Y289560D02*
X152400D01*
X34290Y279400D02*
X44450Y289560D01*
X37266Y167640D02*
X50800D01*
X34290Y170616D02*
X37266Y167640D01*
X34290Y170616D02*
Y279400D01*
X50800Y167640D02*
X52070Y168910D01*
X276860Y115570D02*
X330634D01*
X279836Y265430D02*
X304800D01*
X276860Y262454D02*
X279836Y265430D01*
X333610Y90170D02*
Y112594D01*
X330634Y115570D02*
X333610Y112594D01*
X101600Y135890D02*
Y165100D01*
X100965Y165735D02*
Y240665D01*
Y165735D02*
X101600Y165100D01*
X52070Y245110D02*
X93565D01*
X97375Y241300D01*
X100330D01*
X52070Y139640D02*
Y168910D01*
D38*
X223520Y121920D02*
D03*
D39*
Y109220D02*
D03*
Y96520D02*
D03*
D40*
X25400Y22860D02*
D03*
X487350Y23597D02*
D03*
X487956Y590318D02*
D03*
X24460Y590951D02*
D03*
D41*
X292100Y500380D02*
D03*
Y525780D02*
D03*
Y551180D02*
D03*
X368300D02*
D03*
Y525780D02*
D03*
D42*
Y500380D02*
D03*
D43*
X352590Y200260D02*
D03*
D44*
X402590Y175260D02*
D03*
X352590Y150260D02*
D03*
X421640Y413150D02*
D03*
X396640Y463150D02*
D03*
D45*
X446640D02*
D03*
D46*
X306070Y388620D02*
D03*
X229870D02*
D03*
X209550Y44450D02*
D03*
X285750D02*
D03*
X163830Y537210D02*
D03*
X265430D02*
D03*
X81280Y431800D02*
D03*
X182880D02*
D03*
X336550Y367030D02*
D03*
X412750D02*
D03*
Y317500D02*
D03*
Y241300D02*
D03*
X177800Y165100D02*
D03*
X101600D02*
D03*
X177800Y135890D02*
D03*
X101600D02*
D03*
X52070Y168910D02*
D03*
Y245110D02*
D03*
X187960Y375920D02*
D03*
Y299720D02*
D03*
X153670Y322580D02*
D03*
D47*
X304800Y163830D02*
D03*
Y189230D02*
D03*
Y214630D02*
D03*
Y240030D02*
D03*
Y265430D02*
D03*
Y290830D02*
D03*
Y316230D02*
D03*
X228600Y163830D02*
D03*
Y189230D02*
D03*
Y214630D02*
D03*
Y240030D02*
D03*
Y265430D02*
D03*
Y290830D02*
D03*
X52070Y139640D02*
D03*
D48*
X228600Y316230D02*
D03*
D49*
X100330Y241300D02*
D03*
X227330Y420370D02*
D03*
X100330Y537210D02*
D03*
X96520Y488950D02*
D03*
X402590Y104140D02*
D03*
D50*
X333610Y90170D02*
D03*
D51*
X283610Y90170D02*
D03*
D52*
X153790Y471170D02*
D03*
D53*
X176590D02*
D03*
X199390D02*
D03*
D54*
X308610Y422910D02*
D03*
X334010D02*
D03*
D55*
X321310D02*
D03*
D56*
X153670Y347980D02*
D03*
D57*
X52070Y68640D02*
D03*
D58*
X265430Y503356D02*
Y537210D01*
X268406Y500380D02*
X292100D01*
Y551180D02*
X317590D01*
X321310Y474146D02*
Y547460D01*
X176590Y471170D02*
Y524450D01*
X163830Y537210D02*
X176590Y524450D01*
X182880Y431800D02*
X199390Y448310D01*
Y471170D02*
X318334D01*
X100330Y537210D02*
X163830D01*
X81280Y431800D02*
Y473710D01*
X96520Y488950D01*
X114300Y471170D02*
X153790D01*
X96520Y488950D02*
X114300Y471170D01*
X199390Y448310D02*
Y471170D01*
D59*
X317590Y551180D02*
X321310Y547460D01*
X318334Y471170D02*
X321310Y474146D01*
X176530Y471230D02*
X176590Y471170D01*
X308610Y393230D02*
Y422910D01*
X306070Y390690D02*
X308610Y393230D01*
X306070Y388620D02*
Y390690D01*
X334010Y422910D02*
X335280Y421640D01*
M02*
