G04*
G04 #@! TF.GenerationSoftware,Altium Limited,Altium Designer,20.2.5 (213)*
G04*
G04 Layer_Physical_Order=1*
G04 Layer_Color=255*
%FSLAX44Y44*%
%MOMM*%
G71*
G04*
G04 #@! TF.SameCoordinates,930A2EF1-4135-481E-B3E8-EEE05B8073E9*
G04*
G04*
G04 #@! TF.FilePolarity,Positive*
G04*
G01*
G75*
%ADD15C,0.2540*%
%ADD37C,0.5080*%
%ADD38R,1.0500X1.0500*%
%ADD39C,1.0500*%
%ADD40C,1.5240*%
%ADD41C,1.1300*%
%ADD42R,1.1300X1.1300*%
%ADD43R,1.6500X1.6500*%
%ADD44C,1.6500*%
%ADD45R,1.6500X1.6500*%
%ADD46C,1.4000*%
%ADD47C,1.5000*%
%ADD48R,1.5000X1.5000*%
%ADD49C,1.6000*%
%ADD50R,1.3500X1.3500*%
%ADD51C,1.3500*%
%ADD52R,1.6000X1.6000*%
%ADD53C,1.6000*%
%ADD54O,1.0000X2.0000*%
%ADD55O,1.0000X2.0000*%
%ADD56R,1.4000X1.4000*%
%ADD57R,1.5000X1.5000*%
D15*
X27946Y327657D02*
X25407Y325117D01*
Y320039D01*
X27946Y317500D01*
X38103D01*
X40642Y320039D01*
Y325117D01*
X38103Y327657D01*
X33024D01*
Y322578D01*
X30485Y332735D02*
X40642D01*
X35563D01*
X33024Y335274D01*
X30485Y337813D01*
Y340353D01*
X40642Y350509D02*
Y355588D01*
X38103Y358127D01*
X33024D01*
X30485Y355588D01*
Y350509D01*
X33024Y347970D01*
X38103D01*
X40642Y350509D01*
X30485Y363205D02*
X38103D01*
X40642Y365744D01*
Y373362D01*
X30485D01*
X45720Y378440D02*
X30485D01*
Y386058D01*
X33024Y388597D01*
X38103D01*
X40642Y386058D01*
Y378440D01*
X43181Y393675D02*
Y403832D01*
X40642Y408910D02*
Y413989D01*
Y411450D01*
X25407D01*
X27946Y408910D01*
X25407Y431763D02*
X27946Y426685D01*
X33024Y421606D01*
X38103D01*
X40642Y424146D01*
Y429224D01*
X38103Y431763D01*
X35563D01*
X33024Y429224D01*
Y421606D01*
X49533Y321328D02*
Y316249D01*
X53342D01*
Y318789D01*
Y316249D01*
X57151D01*
Y323867D02*
Y326406D01*
Y325136D01*
X52073D01*
Y323867D01*
Y330215D02*
X57151D01*
X54612D01*
X53342Y331484D01*
X52073Y332754D01*
Y334024D01*
X57151Y337832D02*
Y340372D01*
Y339102D01*
X52073D01*
Y337832D01*
X57151Y344180D02*
X52073D01*
Y347989D01*
X53342Y349259D01*
X57151D01*
X59690Y354337D02*
Y355607D01*
X58420Y356876D01*
X52073D01*
Y353067D01*
X53342Y351798D01*
X55881D01*
X57151Y353067D01*
Y356876D01*
X52073Y368302D02*
Y370842D01*
X53342Y372111D01*
X57151D01*
Y368302D01*
X55881Y367033D01*
X54612Y368302D01*
Y372111D01*
X57151Y374650D02*
X52073D01*
Y378459D01*
X53342Y379729D01*
X57151D01*
X59690Y384807D02*
Y386077D01*
X58420Y387346D01*
X52073D01*
Y383537D01*
X53342Y382268D01*
X55881D01*
X57151Y383537D01*
Y387346D01*
Y389885D02*
Y392425D01*
Y391155D01*
X49533D01*
Y389885D01*
X57151Y400042D02*
Y397503D01*
X55881Y396233D01*
X53342D01*
X52073Y397503D01*
Y400042D01*
X53342Y401312D01*
X54612D01*
Y396233D01*
X49533Y411469D02*
X55881D01*
X57151Y412738D01*
Y415277D01*
X55881Y416547D01*
X49533D01*
X57151Y419086D02*
X52073D01*
Y422895D01*
X53342Y424164D01*
X57151D01*
Y426704D02*
Y429243D01*
Y427973D01*
X52073D01*
Y426704D01*
X50803Y434321D02*
X52073D01*
Y433051D01*
Y435591D01*
Y434321D01*
X55881D01*
X57151Y435591D01*
D37*
X365360Y463150D02*
X396640D01*
X356870Y454660D02*
X365360Y463150D01*
X310723Y454660D02*
X356870D01*
X276432Y420370D02*
X310723Y454660D01*
X227330Y420370D02*
X276432D01*
X396640Y460227D02*
Y463150D01*
X353060Y47426D02*
Y149790D01*
X285750Y44450D02*
X350084D01*
X353060Y47426D01*
X352590Y150260D02*
X353060Y149790D01*
X304800Y290830D02*
X348814D01*
X351790Y201060D02*
X352590Y200260D01*
X351790Y201060D02*
Y287854D01*
X348814Y290830D02*
X351790Y287854D01*
X250190Y110926D02*
Y313254D01*
X223520Y109220D02*
X224445Y108295D01*
X236390D01*
X236735Y107950D01*
X247214D01*
X250190Y110926D01*
X228600Y316230D02*
X247214D01*
X250190Y313254D01*
X283610Y90170D02*
X284680Y89100D01*
Y45520D02*
Y89100D01*
Y45520D02*
X285750Y44450D01*
X191770Y68640D02*
X281504D01*
X284480Y71616D01*
X227330Y420370D02*
X228600Y419100D01*
Y389890D02*
Y419100D01*
Y389890D02*
X229870Y388620D01*
X187960Y375920D02*
Y378334D01*
X227330Y417704D01*
Y420370D01*
X153670Y347980D02*
Y372944D01*
X156646Y375920D02*
X187960D01*
X153670Y372944D02*
X156646Y375920D01*
X212090Y256540D02*
X228600Y240030D01*
X212090Y256540D02*
Y372110D01*
X208280Y375920D02*
X212090Y372110D01*
X187960Y375920D02*
X208280D01*
X52070Y68640D02*
X191770D01*
Y203200D02*
X228600Y240030D01*
X191770Y68640D02*
Y203200D01*
X283610Y90170D02*
X283610Y90170D01*
D38*
X223520Y121920D02*
D03*
D39*
Y109220D02*
D03*
Y96520D02*
D03*
D40*
X25400Y22860D02*
D03*
X487350Y23597D02*
D03*
X487956Y590318D02*
D03*
X24460Y590951D02*
D03*
D41*
X292100Y500380D02*
D03*
Y525780D02*
D03*
Y551180D02*
D03*
X368300D02*
D03*
Y525780D02*
D03*
D42*
Y500380D02*
D03*
D43*
X352590Y200260D02*
D03*
D44*
X402590Y175260D02*
D03*
X352590Y150260D02*
D03*
X421640Y413150D02*
D03*
X396640Y463150D02*
D03*
D45*
X446640D02*
D03*
D46*
X306070Y388620D02*
D03*
X229870D02*
D03*
X209550Y44450D02*
D03*
X285750D02*
D03*
X163830Y537210D02*
D03*
X265430D02*
D03*
X81280Y431800D02*
D03*
X182880D02*
D03*
X336550Y367030D02*
D03*
X412750D02*
D03*
Y317500D02*
D03*
Y241300D02*
D03*
X177800Y165100D02*
D03*
X101600D02*
D03*
X177800Y135890D02*
D03*
X101600D02*
D03*
X52070Y168910D02*
D03*
Y245110D02*
D03*
X187960Y375920D02*
D03*
Y299720D02*
D03*
X153670Y322580D02*
D03*
D47*
X304800Y163830D02*
D03*
Y189230D02*
D03*
Y214630D02*
D03*
Y240030D02*
D03*
Y265430D02*
D03*
Y290830D02*
D03*
Y316230D02*
D03*
X228600Y163830D02*
D03*
Y189230D02*
D03*
Y214630D02*
D03*
Y240030D02*
D03*
Y265430D02*
D03*
Y290830D02*
D03*
X52070Y139640D02*
D03*
D48*
X228600Y316230D02*
D03*
D49*
X100330Y241300D02*
D03*
X227330Y420370D02*
D03*
X100330Y537210D02*
D03*
X96520Y488950D02*
D03*
X402590Y104140D02*
D03*
D50*
X333610Y90170D02*
D03*
D51*
X283610Y90170D02*
D03*
D52*
X153790Y471170D02*
D03*
D53*
X176590D02*
D03*
X199390D02*
D03*
D54*
X308610Y422910D02*
D03*
X334010D02*
D03*
D55*
X321310D02*
D03*
D56*
X153670Y347980D02*
D03*
D57*
X52070Y68640D02*
D03*
M02*
