G04*
G04 #@! TF.GenerationSoftware,Altium Limited,Altium Designer,20.2.5 (213)*
G04*
G04 Layer_Physical_Order=1*
G04 Layer_Color=255*
%FSLAX44Y44*%
%MOMM*%
G71*
G04*
G04 #@! TF.SameCoordinates,3CA80DEF-A651-457A-9D84-72F8DF8CF74D*
G04*
G04*
G04 #@! TF.FilePolarity,Positive*
G04*
G01*
G75*
%ADD14C,0.2540*%
%ADD18R,1.3000X1.3000*%
%ADD19C,1.3000*%
%ADD27C,0.5080*%
%ADD28C,1.5240*%
%ADD29R,1.6500X1.6500*%
%ADD30C,1.6500*%
%ADD31C,1.5000*%
%ADD32R,1.5000X1.5000*%
%ADD33C,1.4000*%
%ADD34C,1.6000*%
%ADD35C,1.3500*%
%ADD36R,1.3500X1.3500*%
%ADD37R,1.3500X1.3500*%
D14*
X560070Y308610D02*
X552453D01*
Y312419D01*
X553722Y313688D01*
X556261D01*
X557531Y312419D01*
Y308610D01*
X552453Y316227D02*
Y318767D01*
Y317497D01*
X560070D01*
Y316227D01*
Y318767D01*
X552453Y322575D02*
X560070D01*
Y326384D01*
X558800Y327654D01*
X553722D01*
X552453Y326384D01*
Y322575D01*
Y337811D02*
X558800D01*
X560070Y339080D01*
Y341619D01*
X558800Y342889D01*
X552453D01*
X560070Y345428D02*
X554992D01*
Y349237D01*
X556261Y350506D01*
X560070D01*
Y353046D02*
Y355585D01*
Y354315D01*
X554992D01*
Y353046D01*
X553722Y360663D02*
X554992D01*
Y359394D01*
Y361933D01*
Y360663D01*
X558800D01*
X560070Y361933D01*
X528326Y317497D02*
X525787Y314958D01*
Y309879D01*
X528326Y307340D01*
X538483D01*
X541022Y309879D01*
Y314958D01*
X538483Y317497D01*
X533404D01*
Y312418D01*
X530865Y322575D02*
X541022D01*
X535943D01*
X533404Y325114D01*
X530865Y327653D01*
Y330193D01*
X541022Y340349D02*
Y345428D01*
X538483Y347967D01*
X533404D01*
X530865Y345428D01*
Y340349D01*
X533404Y337810D01*
X538483D01*
X541022Y340349D01*
X530865Y353045D02*
X538483D01*
X541022Y355584D01*
Y363202D01*
X530865D01*
X546100Y368280D02*
X530865D01*
Y375898D01*
X533404Y378437D01*
X538483D01*
X541022Y375898D01*
Y368280D01*
X543561Y383515D02*
Y393672D01*
X541022Y398750D02*
Y403829D01*
Y401290D01*
X525787D01*
X528326Y398750D01*
X525787Y421603D02*
X528326Y416525D01*
X533404Y411446D01*
X538483D01*
X541022Y413985D01*
Y419064D01*
X538483Y421603D01*
X535943D01*
X533404Y419064D01*
Y411446D01*
X556260Y271775D02*
X561338D01*
X558799D01*
Y256540D01*
X556260D01*
X561338D01*
X99060Y115565D02*
Y100330D01*
X106678D01*
X109217Y102869D01*
Y113026D01*
X106678Y115565D01*
X99060D01*
X168910Y351790D02*
Y367025D01*
X176528D01*
X179067Y364486D01*
Y359408D01*
X176528Y356868D01*
X168910D01*
D18*
X295750Y52070D02*
D03*
D19*
X275750D02*
D03*
D27*
X289560Y233680D02*
X327660D01*
X251460D02*
X289560D01*
Y182880D02*
X327660D01*
X255270D02*
X289560D01*
Y233680D01*
X385445Y233045D02*
X386080Y232410D01*
X328295Y233045D02*
X385445D01*
X327660Y233680D02*
X328295Y233045D01*
X251460Y182880D02*
X255270D01*
Y184006D01*
X211256Y351790D02*
X319604D01*
X322580Y354766D02*
Y377190D01*
X319604Y351790D02*
X322580Y354766D01*
X208280Y243006D02*
Y348814D01*
X211256Y351790D01*
X155376Y240030D02*
X205304D01*
X208280Y243006D01*
X152400Y57586D02*
Y237054D01*
X155376Y240030D01*
Y54610D02*
X185420D01*
X152400Y57586D02*
X155376Y54610D01*
X185420D02*
X186690Y55880D01*
X227330Y56316D02*
Y205304D01*
X230306Y208280D02*
X251460D01*
X227330Y205304D02*
X230306Y208280D01*
Y53340D02*
X274480D01*
X227330Y56316D02*
X230306Y53340D01*
X274480D02*
X275750Y52070D01*
X361950Y55046D02*
Y205304D01*
X327660Y208280D02*
X358974D01*
X361950Y205304D01*
X295750Y52070D02*
X358974D01*
X361950Y55046D01*
D28*
X594504Y23763D02*
D03*
X24123Y23386D02*
D03*
X22860Y472440D02*
D03*
X595630D02*
D03*
D29*
X137560Y337420D02*
D03*
X62230Y180810D02*
D03*
X557130Y192170D02*
D03*
D30*
X187560Y312420D02*
D03*
X137560Y287420D02*
D03*
X112230Y155810D02*
D03*
X62230Y130810D02*
D03*
X507130Y217170D02*
D03*
X557130Y242170D02*
D03*
D31*
X327660Y132080D02*
D03*
Y157480D02*
D03*
Y182880D02*
D03*
Y208280D02*
D03*
Y233680D02*
D03*
Y259080D02*
D03*
Y284480D02*
D03*
X251460Y132080D02*
D03*
Y157480D02*
D03*
Y182880D02*
D03*
Y208280D02*
D03*
Y233680D02*
D03*
Y259080D02*
D03*
D32*
Y284480D02*
D03*
D33*
X113030Y382270D02*
D03*
X36830D02*
D03*
X322580Y377190D02*
D03*
X246380D02*
D03*
X422910Y351790D02*
D03*
Y427990D02*
D03*
X113030Y233680D02*
D03*
X36830D02*
D03*
X397510Y426720D02*
D03*
X321310D02*
D03*
X186690Y55880D02*
D03*
Y132080D02*
D03*
X440690Y129540D02*
D03*
Y205740D02*
D03*
X500380Y287020D02*
D03*
Y363220D02*
D03*
X486410Y54610D02*
D03*
Y130810D02*
D03*
D34*
X220980Y414020D02*
D03*
X422910Y284480D02*
D03*
X386080Y232410D02*
D03*
D35*
X36830Y278530D02*
D03*
X524910Y129540D02*
D03*
D36*
X36830Y328530D02*
D03*
D37*
X574910Y129540D02*
D03*
M02*
