G04*
G04 #@! TF.GenerationSoftware,Altium Limited,Altium Designer,20.2.5 (213)*
G04*
G04 Layer_Color=32768*
%FSLAX44Y44*%
%MOMM*%
G71*
G04*
G04 #@! TF.SameCoordinates,3CA80DEF-A651-457A-9D84-72F8DF8CF74D*
G04*
G04*
G04 #@! TF.FilePolarity,Positive*
G04*
G01*
G75*
%ADD39C,0.1000*%
%ADD40C,0.0500*%
D39*
X289560Y203280D02*
Y213280D01*
X284560Y208280D02*
X294560D01*
D40*
X113060Y275920D02*
Y348920D01*
X199060D01*
Y275920D02*
Y348920D01*
X113060Y275920D02*
X199060D01*
X37730Y119310D02*
Y192310D01*
X123730D01*
Y119310D02*
Y192310D01*
X37730Y119310D02*
X123730D01*
X581630Y180670D02*
Y253670D01*
X495630Y180670D02*
X581630D01*
X495630D02*
Y253670D01*
X581630D01*
X241060Y107280D02*
X338060D01*
X241060Y309280D02*
X338060D01*
Y107280D02*
Y309280D01*
X241060Y107280D02*
Y309280D01*
X215980Y414020D02*
X225980D01*
X220980Y409020D02*
Y419020D01*
X204780Y429470D02*
X237180D01*
Y398570D02*
Y429470D01*
X204780Y398570D02*
X237180D01*
X204780D02*
Y429470D01*
X417910Y284480D02*
X427910D01*
X422910Y279480D02*
Y289480D01*
X406710Y299930D02*
X439110D01*
Y269030D02*
Y299930D01*
X406710Y269030D02*
X439110D01*
X406710D02*
Y299930D01*
X381080Y232410D02*
X391080D01*
X386080Y227410D02*
Y237410D01*
X369880Y247860D02*
X402280D01*
Y216960D02*
Y247860D01*
X369880Y216960D02*
X402280D01*
X369880D02*
Y247860D01*
M02*
