G04*
G04 #@! TF.GenerationSoftware,Altium Limited,Altium Designer,20.2.5 (213)*
G04*
G04 Layer_Color=8388736*
%FSLAX44Y44*%
%MOMM*%
G71*
G04*
G04 #@! TF.SameCoordinates,3CA80DEF-A651-457A-9D84-72F8DF8CF74D*
G04*
G04*
G04 #@! TF.FilePolarity,Negative*
G04*
G01*
G75*
%ADD15C,1.7272*%
%ADD16R,1.8532X1.8532*%
%ADD17C,1.8532*%
%ADD18R,1.3000X1.3000*%
%ADD19C,1.3000*%
%ADD20C,1.7032*%
%ADD21R,1.7032X1.7032*%
%ADD22C,1.6032*%
%ADD23C,1.8032*%
%ADD24C,1.5532*%
%ADD25R,1.5532X1.5532*%
%ADD26R,1.5532X1.5532*%
D15*
X594504Y23763D02*
D03*
X24123Y23386D02*
D03*
X22860Y472440D02*
D03*
X595630D02*
D03*
D16*
X137560Y337420D02*
D03*
X62230Y180810D02*
D03*
X557130Y192170D02*
D03*
D17*
X187560Y312420D02*
D03*
X137560Y287420D02*
D03*
X112230Y155810D02*
D03*
X62230Y130810D02*
D03*
X507130Y217170D02*
D03*
X557130Y242170D02*
D03*
D18*
X295750Y52070D02*
D03*
D19*
X275750D02*
D03*
D20*
X327660Y132080D02*
D03*
Y157480D02*
D03*
Y182880D02*
D03*
Y208280D02*
D03*
Y233680D02*
D03*
Y259080D02*
D03*
Y284480D02*
D03*
X251460Y132080D02*
D03*
Y157480D02*
D03*
Y182880D02*
D03*
Y208280D02*
D03*
Y233680D02*
D03*
Y259080D02*
D03*
D21*
Y284480D02*
D03*
D22*
X113030Y382270D02*
D03*
X36830D02*
D03*
X322580Y377190D02*
D03*
X246380D02*
D03*
X422910Y351790D02*
D03*
Y427990D02*
D03*
X113030Y233680D02*
D03*
X36830D02*
D03*
X397510Y426720D02*
D03*
X321310D02*
D03*
X186690Y55880D02*
D03*
Y132080D02*
D03*
X440690Y129540D02*
D03*
Y205740D02*
D03*
X500380Y287020D02*
D03*
Y363220D02*
D03*
X486410Y54610D02*
D03*
Y130810D02*
D03*
D23*
X220980Y414020D02*
D03*
X422910Y284480D02*
D03*
X386080Y232410D02*
D03*
D24*
X36830Y278530D02*
D03*
X524910Y129540D02*
D03*
D25*
X36830Y328530D02*
D03*
D26*
X574910Y129540D02*
D03*
M02*
