G04*
G04 #@! TF.GenerationSoftware,Altium Limited,Altium Designer,20.2.5 (213)*
G04*
G04 Layer_Color=16711935*
%FSLAX44Y44*%
%MOMM*%
G71*
G04*
G04 #@! TF.SameCoordinates,3CA80DEF-A651-457A-9D84-72F8DF8CF74D*
G04*
G04*
G04 #@! TF.FilePolarity,Positive*
G04*
G01*
G75*
%ADD10C,0.2000*%
%ADD13C,0.1270*%
%ADD39C,0.1000*%
D10*
X110560Y337420D02*
G03*
X110560Y337420I-1000J0D01*
G01*
X35230Y180810D02*
G03*
X35230Y180810I-1000J0D01*
G01*
X586130Y192170D02*
G03*
X586130Y192170I-1000J0D01*
G01*
D13*
X120060Y278370D02*
X182560D01*
X196560Y292420D01*
Y331120D01*
X181160Y346470D02*
X196560Y331120D01*
X120060Y346470D02*
X181160D01*
X120060Y325120D02*
Y346470D01*
Y299720D02*
Y325120D01*
Y278370D02*
Y299720D01*
X115560Y278370D02*
X120060D01*
X115560D02*
Y299720D01*
X120060D01*
X115560Y325120D02*
X120060D01*
X115560D02*
Y346470D01*
X120060D01*
X44730Y121760D02*
X107230D01*
X121230Y135810D01*
Y174510D01*
X105830Y189860D02*
X121230Y174510D01*
X44730Y189860D02*
X105830D01*
X44730Y168510D02*
Y189860D01*
Y143110D02*
Y168510D01*
Y121760D02*
Y143110D01*
X40230Y121760D02*
X44730D01*
X40230D02*
Y143110D01*
X44730D01*
X40230Y168510D02*
X44730D01*
X40230D02*
Y189860D01*
X44730D01*
X512130Y251220D02*
X574630D01*
X498130Y237170D02*
X512130Y251220D01*
X498130Y198470D02*
Y237170D01*
Y198470D02*
X513530Y183120D01*
X574630D01*
Y204470D01*
Y229870D01*
Y251220D01*
X579130D01*
Y229870D02*
Y251220D01*
X574630Y229870D02*
X579130D01*
X574630Y204470D02*
X579130D01*
Y183120D02*
Y204470D01*
X574630Y183120D02*
X579130D01*
D39*
X270560Y297780D02*
G03*
X270560Y297780I-5000J0D01*
G01*
X256560Y109780D02*
X322560D01*
X256560Y306780D02*
X322560D01*
Y109780D02*
Y306780D01*
X256560Y109780D02*
Y306780D01*
X208280Y426720D02*
X233680D01*
Y401320D02*
Y426720D01*
X208280Y401320D02*
X233680D01*
X208280D02*
Y426720D01*
X410210Y297180D02*
X435610D01*
Y271780D02*
Y297180D01*
X410210Y271780D02*
X435610D01*
X410210D02*
Y297180D01*
X373380Y245110D02*
X398780D01*
Y219710D02*
Y245110D01*
X373380Y219710D02*
X398780D01*
X373380D02*
Y245110D01*
M02*
