G04*
G04 #@! TF.GenerationSoftware,Altium Limited,Altium Designer,20.2.5 (213)*
G04*
G04 Layer_Color=255*
%FSLAX44Y44*%
%MOMM*%
G71*
G04*
G04 #@! TF.SameCoordinates,7541D054-3382-41C0-95A3-E9C1F66121CC*
G04*
G04*
G04 #@! TF.FilePolarity,Positive*
G04*
G01*
G75*
%ADD25C,2.0500*%
%ADD26R,2.0500X2.0500*%
%ADD30R,1.3500X1.3500*%
%ADD31C,1.3500*%
%ADD32R,1.4000X1.4000*%
%ADD33C,1.4000*%
%ADD34R,1.4000X1.4000*%
%ADD35C,1.5240*%
%ADD36C,1.6000*%
%ADD37R,1.6000X1.6000*%
%ADD38R,1.3500X1.3500*%
%ADD39C,2.0000*%
%ADD40R,2.0000X2.0000*%
%ADD41R,1.6000X1.6000*%
%ADD42C,1.6000*%
D25*
X480384Y134365D02*
D03*
Y109015D02*
D03*
D26*
Y83665D02*
D03*
D30*
X182014Y303325D02*
D03*
X29614Y229665D02*
D03*
D31*
X232014Y303325D02*
D03*
X462284Y254195D02*
D03*
X309884Y288955D02*
D03*
X543564Y96715D02*
D03*
X412754Y117505D02*
D03*
X79614Y229665D02*
D03*
D32*
X480060Y191770D02*
D03*
X572770Y214630D02*
D03*
X568960Y285750D02*
D03*
X538484Y285545D02*
D03*
X207014Y136955D02*
D03*
X541024Y214425D02*
D03*
D33*
X480060Y217170D02*
D03*
X572770Y189230D02*
D03*
X224790Y266700D02*
D03*
X229870Y344170D02*
D03*
X568960Y260350D02*
D03*
X222254Y46785D02*
D03*
X538484Y260145D02*
D03*
X207014Y162355D02*
D03*
X541024Y189025D02*
D03*
X224790Y234950D02*
D03*
D34*
X199390Y266700D02*
D03*
X204470Y344170D02*
D03*
X196854Y46785D02*
D03*
X199390Y234950D02*
D03*
D35*
X579495Y353281D02*
D03*
X22583Y355022D02*
D03*
X23480Y22901D02*
D03*
X577850Y22860D02*
D03*
D36*
X392434Y300785D02*
D03*
Y275385D02*
D03*
D37*
Y249985D02*
D03*
D38*
X462284Y304195D02*
D03*
X309884Y238955D02*
D03*
X543564Y146715D02*
D03*
X412754Y67505D02*
D03*
D39*
X242344Y189025D02*
D03*
X28984Y175055D02*
D03*
X243614Y111555D02*
D03*
X28984Y114095D02*
D03*
D40*
X346944Y189025D02*
D03*
X133584Y175055D02*
D03*
X348214Y111555D02*
D03*
X133584Y114095D02*
D03*
D41*
X121924Y312215D02*
D03*
D42*
X96524D02*
D03*
X71124D02*
D03*
M02*
