G04*
G04 #@! TF.GenerationSoftware,Altium Limited,Altium Designer,20.2.5 (213)*
G04*
G04 Layer_Color=16711935*
%FSLAX44Y44*%
%MOMM*%
G71*
G04*
G04 #@! TF.SameCoordinates,7541D054-3382-41C0-95A3-E9C1F66121CC*
G04*
G04*
G04 #@! TF.FilePolarity,Positive*
G04*
G01*
G75*
%ADD44C,0.1000*%
D44*
X491760Y181120D02*
Y227820D01*
X468360Y181120D02*
X491760D01*
X468360D02*
Y227820D01*
X561070Y178580D02*
Y225280D01*
X584470D01*
Y178580D02*
Y225280D01*
X188740Y255000D02*
X235440D01*
X188740D02*
Y278400D01*
X235440D01*
X193820Y332470D02*
X240520D01*
X193820D02*
Y355870D01*
X240520D01*
X580660Y249700D02*
Y296400D01*
X557260D02*
X580660D01*
X557260Y249700D02*
Y296400D01*
X186204Y35085D02*
X232904D01*
X186204D02*
Y58485D01*
X232904D01*
X526784Y249495D02*
Y296195D01*
X550184D01*
Y249495D02*
Y296195D01*
X379334Y224385D02*
Y326385D01*
X365834D02*
X412834D01*
X365834Y224385D02*
X412834D01*
X365834D02*
Y326385D01*
X412834Y224385D02*
Y326385D01*
X218714Y126305D02*
Y173005D01*
X195314Y126305D02*
X218714D01*
X195314D02*
Y173005D01*
X529324Y178375D02*
Y225075D01*
X552724D01*
Y178375D02*
Y225075D01*
X188740Y223250D02*
X235440D01*
X188740D02*
Y246650D01*
X235440D01*
X43024Y283715D02*
X150024D01*
X43024Y330715D02*
X150024D01*
Y283715D02*
Y330715D01*
X43024Y283715D02*
Y330715D01*
Y296715D02*
X150024D01*
M02*
