G04*
G04 #@! TF.GenerationSoftware,Altium Limited,Altium Designer,20.2.5 (213)*
G04*
G04 Layer_Color=32768*
%FSLAX44Y44*%
%MOMM*%
G71*
G04*
G04 #@! TF.SameCoordinates,7541D054-3382-41C0-95A3-E9C1F66121CC*
G04*
G04*
G04 #@! TF.FilePolarity,Positive*
G04*
G01*
G75*
%ADD44C,0.1000*%
%ADD45C,0.0500*%
D44*
X480060Y199470D02*
Y209470D01*
X475060Y204470D02*
X485060D01*
X572770Y196930D02*
Y206930D01*
X567770Y201930D02*
X577770D01*
X207090Y266700D02*
X217090D01*
X212090Y261700D02*
Y271700D01*
X212170Y344170D02*
X222170D01*
X217170Y339170D02*
Y349170D01*
X563960Y273050D02*
X573960D01*
X568960Y268050D02*
Y278050D01*
X204554Y46785D02*
X214554D01*
X209554Y41785D02*
Y51785D01*
X538484Y267845D02*
Y277845D01*
X533484Y272845D02*
X543484D01*
X392434Y270385D02*
Y280385D01*
X387434Y275385D02*
X397434D01*
X207014Y144655D02*
Y154655D01*
X202014Y149655D02*
X212014D01*
X541024Y196725D02*
Y206725D01*
X536024Y201725D02*
X546024D01*
X207090Y234950D02*
X217090D01*
X212090Y229950D02*
Y239950D01*
X91524Y312215D02*
X101524D01*
X96524Y307215D02*
Y317215D01*
D45*
X467360Y180120D02*
X492760D01*
X467360Y228820D02*
X492760D01*
X467360Y180120D02*
Y228820D01*
X492760Y180120D02*
Y228820D01*
X560070Y226280D02*
X585470D01*
X560070Y177580D02*
X585470D01*
Y226280D01*
X560070Y177580D02*
Y226280D01*
X187740Y254000D02*
Y279400D01*
X236440Y254000D02*
Y279400D01*
X187740D02*
X236440D01*
X187740Y254000D02*
X236440D01*
X192820Y331470D02*
Y356870D01*
X241520Y331470D02*
Y356870D01*
X192820D02*
X241520D01*
X192820Y331470D02*
X241520D01*
X556260Y248700D02*
Y297400D01*
X581660Y248700D02*
Y297400D01*
X556260Y248700D02*
X581660D01*
X556260Y297400D02*
X581660D01*
X185204Y34085D02*
Y59485D01*
X233904Y34085D02*
Y59485D01*
X185204D02*
X233904D01*
X185204Y34085D02*
X233904D01*
X525784Y297195D02*
X551184D01*
X525784Y248495D02*
X551184D01*
Y297195D01*
X525784Y248495D02*
Y297195D01*
X363334Y328885D02*
X415334D01*
X363334Y221885D02*
X415334D01*
X363334D02*
Y328885D01*
X415334Y221885D02*
Y328885D01*
X194314Y125305D02*
X219714D01*
X194314Y174005D02*
X219714D01*
X194314Y125305D02*
Y174005D01*
X219714Y125305D02*
Y174005D01*
X528324Y226075D02*
X553724D01*
X528324Y177375D02*
X553724D01*
Y226075D01*
X528324Y177375D02*
Y226075D01*
X187740Y222250D02*
Y247650D01*
X236440Y222250D02*
Y247650D01*
X187740D02*
X236440D01*
X187740Y222250D02*
X236440D01*
X42024Y282715D02*
Y331715D01*
X151024Y282715D02*
Y331715D01*
X42024D02*
X151024D01*
X42024Y282715D02*
X151024D01*
M02*
