G04*
G04 #@! TF.GenerationSoftware,Altium Limited,Altium Designer,20.2.5 (213)*
G04*
G04 Layer_Physical_Order=1*
G04 Layer_Color=255*
%FSLAX44Y44*%
%MOMM*%
G71*
G04*
G04 #@! TF.SameCoordinates,7541D054-3382-41C0-95A3-E9C1F66121CC*
G04*
G04*
G04 #@! TF.FilePolarity,Positive*
G04*
G01*
G75*
%ADD12C,0.2540*%
%ADD25C,2.0500*%
%ADD26R,2.0500X2.0500*%
%ADD29C,0.5080*%
%ADD30R,1.3500X1.3500*%
%ADD31C,1.3500*%
%ADD32R,1.4000X1.4000*%
%ADD33C,1.4000*%
%ADD34R,1.4000X1.4000*%
%ADD35C,1.5240*%
%ADD36C,1.6000*%
%ADD37R,1.6000X1.6000*%
%ADD38R,1.3500X1.3500*%
%ADD39C,2.0000*%
%ADD40R,2.0000X2.0000*%
%ADD41R,1.6000X1.6000*%
%ADD42C,1.6000*%
D12*
X273047Y363214D02*
X270508Y365753D01*
X265429D01*
X262890Y363214D01*
Y353058D01*
X265429Y350518D01*
X270508D01*
X273047Y353058D01*
Y358136D01*
X267968D01*
X278125Y360675D02*
Y350518D01*
Y355597D01*
X280664Y358136D01*
X283203Y360675D01*
X285743D01*
X295899Y350518D02*
X300978D01*
X303517Y353058D01*
Y358136D01*
X300978Y360675D01*
X295899D01*
X293360Y358136D01*
Y353058D01*
X295899Y350518D01*
X308595Y360675D02*
Y353058D01*
X311134Y350518D01*
X318752D01*
Y360675D01*
X323830Y345440D02*
Y360675D01*
X331448D01*
X333987Y358136D01*
Y353058D01*
X331448Y350518D01*
X323830D01*
X339065Y347979D02*
X349222D01*
X354300Y350518D02*
X359379D01*
X356840D01*
Y365753D01*
X354300Y363214D01*
X377153Y365753D02*
X372075Y363214D01*
X366996Y358136D01*
Y353058D01*
X369535Y350518D01*
X374614D01*
X377153Y353058D01*
Y355597D01*
X374614Y358136D01*
X366996D01*
X264433Y337650D02*
Y344760D01*
X267987D01*
X269172Y343575D01*
Y341205D01*
X267987Y340020D01*
X264433D01*
X272727Y337650D02*
X275097D01*
X276282Y338835D01*
Y341205D01*
X275097Y342390D01*
X272727D01*
X271542Y341205D01*
Y338835D01*
X272727Y337650D01*
X278652Y342390D02*
Y338835D01*
X279837Y337650D01*
X281022Y338835D01*
X282207Y337650D01*
X283392Y338835D01*
Y342390D01*
X289316Y337650D02*
X286947D01*
X285762Y338835D01*
Y341205D01*
X286947Y342390D01*
X289316D01*
X290501Y341205D01*
Y340020D01*
X285762D01*
X292871Y342390D02*
Y337650D01*
Y340020D01*
X294056Y341205D01*
X295241Y342390D01*
X296426D01*
X311830Y343575D02*
X310646Y344760D01*
X308276D01*
X307091Y343575D01*
Y342390D01*
X308276Y341205D01*
X310646D01*
X311830Y340020D01*
Y338835D01*
X310646Y337650D01*
X308276D01*
X307091Y338835D01*
X314200Y342390D02*
Y338835D01*
X315385Y337650D01*
X318940D01*
Y342390D01*
X321310Y335280D02*
Y342390D01*
X324865D01*
X326050Y341205D01*
Y338835D01*
X324865Y337650D01*
X321310D01*
X328420Y335280D02*
Y342390D01*
X331974D01*
X333159Y341205D01*
Y338835D01*
X331974Y337650D01*
X328420D01*
X335529D02*
X337899D01*
X336714D01*
Y344760D01*
X335529D01*
X341454Y342390D02*
Y338835D01*
X342639Y337650D01*
X346194D01*
Y336465D01*
X345009Y335280D01*
X343824D01*
X346194Y337650D02*
Y342390D01*
X355673D02*
Y338835D01*
X356858Y337650D01*
X360413D01*
Y342390D01*
X362783Y337650D02*
Y342390D01*
X366338D01*
X367523Y341205D01*
Y337650D01*
X369893D02*
X372263D01*
X371078D01*
Y342390D01*
X369893D01*
X377003Y343575D02*
Y342390D01*
X375818D01*
X378187D01*
X377003D01*
Y338835D01*
X378187Y337650D01*
D25*
X480384Y134365D02*
D03*
Y109015D02*
D03*
D26*
Y83665D02*
D03*
D29*
X541024Y189025D02*
X541126Y189128D01*
X572668D01*
X572770Y189230D01*
X462284Y234946D02*
Y254195D01*
Y234946D02*
X480060Y217170D01*
X223913Y234073D02*
X224790Y234950D01*
X223913Y220330D02*
Y234073D01*
X221818Y218235D02*
X223913Y220330D01*
X224790Y234950D02*
Y266700D01*
X232014Y276338D02*
Y303325D01*
X224790Y269114D02*
X232014Y276338D01*
X224790Y266700D02*
Y269114D01*
X229870Y344170D02*
X230942Y343098D01*
Y304397D02*
Y343098D01*
Y304397D02*
X232014Y303325D01*
X538484Y260145D02*
X538586Y260248D01*
X568858D01*
X568960Y260350D01*
X118948Y229665D02*
X120654Y231371D01*
X123630Y218235D02*
X221818D01*
X120654Y221211D02*
X123630Y218235D01*
X120654Y221211D02*
Y231371D01*
X121924Y232641D01*
X412754Y117505D02*
X467721D01*
X476211Y109015D01*
X480384D01*
X518164Y110285D02*
Y192001D01*
Y100561D02*
Y110285D01*
X480384Y109015D02*
X481654Y110285D01*
X518164D01*
X522010Y96715D02*
X543564D01*
X518164Y100561D02*
X522010Y96715D01*
X518164Y254195D02*
X530120D01*
X462284D02*
X518164D01*
Y192001D02*
Y254195D01*
X521140Y189025D02*
X541024D01*
X518164Y192001D02*
X521140Y189025D01*
X530120Y254195D02*
X536070Y260145D01*
X538484D01*
X430534Y256771D02*
Y271139D01*
X461884Y253795D02*
X462284Y254195D01*
X433510Y253795D02*
X461884D01*
X430534Y256771D02*
X433510Y253795D01*
X393704Y274115D02*
X427558D01*
X430534Y271139D01*
X392434Y275385D02*
X393704Y274115D01*
X349254Y275385D02*
X392434D01*
X309884Y288955D02*
X335684D01*
X349254Y275385D01*
X232014Y303325D02*
X306908D01*
X309884Y288955D02*
Y300349D01*
X306908Y303325D02*
X309884Y300349D01*
X121924Y232641D02*
Y312215D01*
X79614Y229665D02*
X118948D01*
D30*
X182014Y303325D02*
D03*
X29614Y229665D02*
D03*
D31*
X232014Y303325D02*
D03*
X462284Y254195D02*
D03*
X309884Y288955D02*
D03*
X543564Y96715D02*
D03*
X412754Y117505D02*
D03*
X79614Y229665D02*
D03*
D32*
X480060Y191770D02*
D03*
X572770Y214630D02*
D03*
X568960Y285750D02*
D03*
X538484Y285545D02*
D03*
X207014Y136955D02*
D03*
X541024Y214425D02*
D03*
D33*
X480060Y217170D02*
D03*
X572770Y189230D02*
D03*
X224790Y266700D02*
D03*
X229870Y344170D02*
D03*
X568960Y260350D02*
D03*
X222254Y46785D02*
D03*
X538484Y260145D02*
D03*
X207014Y162355D02*
D03*
X541024Y189025D02*
D03*
X224790Y234950D02*
D03*
D34*
X199390Y266700D02*
D03*
X204470Y344170D02*
D03*
X196854Y46785D02*
D03*
X199390Y234950D02*
D03*
D35*
X579495Y353281D02*
D03*
X22583Y355022D02*
D03*
X23480Y22901D02*
D03*
X577850Y22860D02*
D03*
D36*
X392434Y300785D02*
D03*
Y275385D02*
D03*
D37*
Y249985D02*
D03*
D38*
X462284Y304195D02*
D03*
X309884Y238955D02*
D03*
X543564Y146715D02*
D03*
X412754Y67505D02*
D03*
D39*
X242344Y189025D02*
D03*
X28984Y175055D02*
D03*
X243614Y111555D02*
D03*
X28984Y114095D02*
D03*
D40*
X346944Y189025D02*
D03*
X133584Y175055D02*
D03*
X348214Y111555D02*
D03*
X133584Y114095D02*
D03*
D41*
X121924Y312215D02*
D03*
D42*
X96524D02*
D03*
X71124D02*
D03*
M02*
