G04*
G04 #@! TF.GenerationSoftware,Altium Limited,Altium Designer,20.2.5 (213)*
G04*
G04 Layer_Physical_Order=2*
G04 Layer_Color=16711680*
%FSLAX44Y44*%
%MOMM*%
G71*
G04*
G04 #@! TF.SameCoordinates,7541D054-3382-41C0-95A3-E9C1F66121CC*
G04*
G04*
G04 #@! TF.FilePolarity,Positive*
G04*
G01*
G75*
%ADD25C,2.0500*%
%ADD26R,2.0500X2.0500*%
%ADD29C,0.5080*%
%ADD30R,1.3500X1.3500*%
%ADD31C,1.3500*%
%ADD32R,1.4000X1.4000*%
%ADD33C,1.4000*%
%ADD34R,1.4000X1.4000*%
%ADD35C,1.5240*%
%ADD36C,1.6000*%
%ADD37R,1.6000X1.6000*%
%ADD38R,1.3500X1.3500*%
%ADD39C,2.0000*%
%ADD40R,2.0000X2.0000*%
%ADD41R,1.6000X1.6000*%
%ADD42C,1.6000*%
D25*
X480384Y134365D02*
D03*
Y109015D02*
D03*
D26*
Y83665D02*
D03*
D29*
X506734Y191770D02*
Y213989D01*
Y183545D02*
Y191770D01*
X480060D02*
X506734D01*
X572668Y214528D02*
X572770Y214630D01*
X541126Y214528D02*
X572668D01*
X541024Y214425D02*
X541126Y214528D01*
X182014Y236656D02*
Y269676D01*
X198120Y233680D02*
X199390Y234950D01*
X184990Y233680D02*
X198120D01*
X182014Y236656D02*
X184990Y233680D01*
X182014Y269676D02*
Y303325D01*
X184990Y266700D02*
X199390D01*
X182014Y269676D02*
X184990Y266700D01*
X201289Y340989D02*
X204470Y344170D01*
X182014Y340989D02*
X201289D01*
X538484Y285545D02*
X538586Y285648D01*
X568858D01*
X568960Y285750D01*
X348214Y74725D02*
Y111555D01*
Y71351D02*
Y74725D01*
X222254Y46785D02*
X345008D01*
X347984Y49761D01*
Y74495D01*
X348214Y74725D01*
X412754Y67505D02*
X464224D01*
X480384Y83665D01*
X28984Y114095D02*
X29214Y113865D01*
Y50595D02*
Y113865D01*
Y50595D02*
X33024Y46785D01*
X196854D01*
X33024Y276655D02*
X92278D01*
X96524Y280901D02*
Y312215D01*
X92278Y276655D02*
X96524Y280901D01*
X29614Y229665D02*
Y273245D01*
X33024Y276655D01*
X74100Y343965D02*
X179038D01*
X182014Y303325D02*
Y340989D01*
X179038Y343965D02*
X182014Y340989D01*
X71124Y312215D02*
Y340989D01*
X74100Y343965D01*
X538484Y216965D02*
X541024Y214425D01*
X509710Y216965D02*
X538484D01*
X506734Y213989D02*
X509710Y216965D01*
X506734Y183545D02*
X543564Y146715D01*
X480384Y134365D02*
X480956D01*
X493306Y146715D01*
X543564D01*
X462284Y304195D02*
X519834D01*
X538484Y285545D01*
X460579Y302490D02*
X462284Y304195D01*
X394139Y302490D02*
X460579D01*
X392434Y300785D02*
X394139Y302490D01*
X309884Y238955D02*
X381404D01*
X392434Y249985D01*
X339484Y196485D02*
X346944Y189025D01*
X339484Y196485D02*
Y209355D01*
X309884Y238955D02*
X339484Y209355D01*
X352060Y67505D02*
X412754D01*
X348214Y71351D02*
X352060Y67505D01*
X346944Y112825D02*
Y189025D01*
Y112825D02*
X348214Y111555D01*
X207014Y162355D02*
X230829Y186170D01*
X239489D01*
X242344Y189025D01*
X207014Y136955D02*
X229559Y114410D01*
X240759D01*
X243614Y111555D01*
X133584Y114095D02*
X184154D01*
X207014Y136955D01*
X133584Y175055D02*
X194314D01*
X207014Y162355D01*
X29299Y229350D02*
X29614Y229665D01*
X29299Y175370D02*
Y229350D01*
X28984Y175055D02*
X29299Y175370D01*
X28984Y114095D02*
Y175055D01*
D30*
X182014Y303325D02*
D03*
X29614Y229665D02*
D03*
D31*
X232014Y303325D02*
D03*
X462284Y254195D02*
D03*
X309884Y288955D02*
D03*
X543564Y96715D02*
D03*
X412754Y117505D02*
D03*
X79614Y229665D02*
D03*
D32*
X480060Y191770D02*
D03*
X572770Y214630D02*
D03*
X568960Y285750D02*
D03*
X538484Y285545D02*
D03*
X207014Y136955D02*
D03*
X541024Y214425D02*
D03*
D33*
X480060Y217170D02*
D03*
X572770Y189230D02*
D03*
X224790Y266700D02*
D03*
X229870Y344170D02*
D03*
X568960Y260350D02*
D03*
X222254Y46785D02*
D03*
X538484Y260145D02*
D03*
X207014Y162355D02*
D03*
X541024Y189025D02*
D03*
X224790Y234950D02*
D03*
D34*
X199390Y266700D02*
D03*
X204470Y344170D02*
D03*
X196854Y46785D02*
D03*
X199390Y234950D02*
D03*
D35*
X579495Y353281D02*
D03*
X22583Y355022D02*
D03*
X23480Y22901D02*
D03*
X577850Y22860D02*
D03*
D36*
X392434Y300785D02*
D03*
Y275385D02*
D03*
D37*
Y249985D02*
D03*
D38*
X462284Y304195D02*
D03*
X309884Y238955D02*
D03*
X543564Y146715D02*
D03*
X412754Y67505D02*
D03*
D39*
X242344Y189025D02*
D03*
X28984Y175055D02*
D03*
X243614Y111555D02*
D03*
X28984Y114095D02*
D03*
D40*
X346944Y189025D02*
D03*
X133584Y175055D02*
D03*
X348214Y111555D02*
D03*
X133584Y114095D02*
D03*
D41*
X121924Y312215D02*
D03*
D42*
X96524D02*
D03*
X71124D02*
D03*
M02*
