G04*
G04 #@! TF.GenerationSoftware,Altium Limited,Altium Designer,20.2.5 (213)*
G04*
G04 Layer_Color=2752767*
%FSLAX44Y44*%
%MOMM*%
G71*
G04*
G04 #@! TF.SameCoordinates,7541D054-3382-41C0-95A3-E9C1F66121CC*
G04*
G04*
G04 #@! TF.FilePolarity,Positive*
G04*
G01*
G75*
%ADD46C,0.0508*%
%ADD47C,0.0677*%
D46*
X179982Y301293D02*
Y305357D01*
X184046D01*
Y301293D01*
X179982D01*
X229982Y301293D02*
Y305357D01*
X234046D01*
Y301293D01*
X229982D01*
X579495Y351249D02*
X577463Y355313D01*
X581527D01*
X579495Y351249D01*
X22583Y352990D02*
X20551Y357054D01*
X24615D01*
X22583Y352990D01*
X23480Y20869D02*
X21448Y24933D01*
X25512D01*
X23480Y20869D01*
X577850Y20828D02*
X575818Y24892D01*
X579882D01*
X577850Y20828D01*
X392434Y298753D02*
X393450Y299769D01*
X394466D01*
X393450Y300785D01*
X394466Y301801D01*
X393450D01*
X392434Y302817D01*
X391418Y301801D01*
X390402D01*
X391418Y300785D01*
X390402Y299769D01*
X391418D01*
X392434Y298753D01*
Y273353D02*
X393450Y274369D01*
X394466D01*
X393450Y275385D01*
X394466Y276401D01*
X393450D01*
X392434Y277417D01*
X391418Y276401D01*
X390402D01*
X391418Y275385D01*
X390402Y274369D01*
X391418D01*
X392434Y273353D01*
Y247953D02*
X393450Y248969D01*
X394466D01*
X393450Y249985D01*
X394466Y251001D01*
X393450D01*
X392434Y252017D01*
X391418Y251001D01*
X390402D01*
X391418Y249985D01*
X390402Y248969D01*
X391418D01*
X392434Y247953D01*
X460252Y252163D02*
Y256227D01*
X464316D01*
Y252163D01*
X460252D01*
X460252Y302163D02*
Y306227D01*
X464316D01*
Y302163D01*
X460252D01*
X307852Y286923D02*
Y290987D01*
X311916D01*
Y286923D01*
X307852D01*
X307852Y236923D02*
Y240987D01*
X311916D01*
Y236923D01*
X307852D01*
X240312Y186993D02*
X241328Y189025D01*
X240312Y191057D01*
X242344Y190041D01*
X244376Y191057D01*
X243360Y189025D01*
X244376Y186993D01*
X242344Y188009D01*
X240312Y186993D01*
X344912D02*
X345928Y189025D01*
X344912Y191057D01*
X346944Y190041D01*
X348976Y191057D01*
X347960Y189025D01*
X348976Y186993D01*
X346944Y188009D01*
X344912Y186993D01*
X26952Y173023D02*
X27968Y175055D01*
X26952Y177087D01*
X28984Y176071D01*
X31016Y177087D01*
X30000Y175055D01*
X31016Y173023D01*
X28984Y174039D01*
X26952Y173023D01*
X131552D02*
X132568Y175055D01*
X131552Y177087D01*
X133584Y176071D01*
X135616Y177087D01*
X134600Y175055D01*
X135616Y173023D01*
X133584Y174039D01*
X131552Y173023D01*
X241582Y109523D02*
X242598Y111555D01*
X241582Y113587D01*
X243614Y112571D01*
X245646Y113587D01*
X244630Y111555D01*
X245646Y109523D01*
X243614Y110539D01*
X241582Y109523D01*
X346182D02*
X347198Y111555D01*
X346182Y113587D01*
X348214Y112571D01*
X350246Y113587D01*
X349230Y111555D01*
X350246Y109523D01*
X348214Y110539D01*
X346182Y109523D01*
X26952Y112063D02*
X27968Y114095D01*
X26952Y116127D01*
X28984Y115111D01*
X31016Y116127D01*
X30000Y114095D01*
X31016Y112063D01*
X28984Y113079D01*
X26952Y112063D01*
X131552D02*
X132568Y114095D01*
X131552Y116127D01*
X133584Y115111D01*
X135616Y116127D01*
X134600Y114095D01*
X135616Y112063D01*
X133584Y113079D01*
X131552Y112063D01*
X479368Y133349D02*
Y132333D01*
X481400D01*
Y133349D01*
X482416D01*
Y135381D01*
X481400D01*
Y136397D01*
X479368D01*
Y135381D01*
X478352D01*
Y133349D01*
X479368D01*
Y107999D02*
Y106983D01*
X481400D01*
Y107999D01*
X482416D01*
Y110031D01*
X481400D01*
Y111047D01*
X479368D01*
Y110031D01*
X478352D01*
Y107999D01*
X479368D01*
Y82649D02*
Y81633D01*
X481400D01*
Y82649D01*
X482416D01*
Y84681D01*
X481400D01*
Y85697D01*
X479368D01*
Y84681D01*
X478352D01*
Y82649D01*
X479368D01*
X541532Y94683D02*
Y98747D01*
X545596D01*
Y94683D01*
X541532D01*
X541532Y144683D02*
Y148747D01*
X545596D01*
Y144683D01*
X541532D01*
X410722Y115473D02*
Y119537D01*
X414786D01*
Y115473D01*
X410722D01*
X410722Y65473D02*
Y69537D01*
X414786D01*
Y65473D01*
X410722D01*
X121924Y310183D02*
X122940Y311199D01*
X123956D01*
X122940Y312215D01*
X123956Y313231D01*
X122940D01*
X121924Y314247D01*
X120908Y313231D01*
X119892D01*
X120908Y312215D01*
X119892Y311199D01*
X120908D01*
X121924Y310183D01*
X96524D02*
X97540Y311199D01*
X98556D01*
X97540Y312215D01*
X98556Y313231D01*
X97540D01*
X96524Y314247D01*
X95508Y313231D01*
X94492D01*
X95508Y312215D01*
X94492Y311199D01*
X95508D01*
X96524Y310183D01*
X71124D02*
X72140Y311199D01*
X73156D01*
X72140Y312215D01*
X73156Y313231D01*
X72140D01*
X71124Y314247D01*
X70108Y313231D01*
X69092D01*
X70108Y312215D01*
X69092Y311199D01*
X70108D01*
X71124Y310183D01*
X77582Y227633D02*
Y231697D01*
X81646D01*
Y227633D01*
X77582D01*
X27582Y227633D02*
Y231697D01*
X31646D01*
Y227633D01*
X27582D01*
D47*
X482092Y191770D02*
G03*
X482092Y191770I-2032J0D01*
G01*
Y217170D02*
G03*
X482092Y217170I-2032J0D01*
G01*
X574802Y214630D02*
G03*
X574802Y214630I-2032J0D01*
G01*
Y189230D02*
G03*
X574802Y189230I-2032J0D01*
G01*
X201422Y266700D02*
G03*
X201422Y266700I-2032J0D01*
G01*
X226822D02*
G03*
X226822Y266700I-2032J0D01*
G01*
X206502Y344170D02*
G03*
X206502Y344170I-2032J0D01*
G01*
X231902D02*
G03*
X231902Y344170I-2032J0D01*
G01*
X570992Y260350D02*
G03*
X570992Y260350I-2032J0D01*
G01*
Y285750D02*
G03*
X570992Y285750I-2032J0D01*
G01*
X198886Y46785D02*
G03*
X198886Y46785I-2032J0D01*
G01*
X224286D02*
G03*
X224286Y46785I-2032J0D01*
G01*
X540516Y285545D02*
G03*
X540516Y285545I-2032J0D01*
G01*
Y260145D02*
G03*
X540516Y260145I-2032J0D01*
G01*
X209046Y136955D02*
G03*
X209046Y136955I-2032J0D01*
G01*
Y162355D02*
G03*
X209046Y162355I-2032J0D01*
G01*
X543056Y214425D02*
G03*
X543056Y214425I-2032J0D01*
G01*
Y189025D02*
G03*
X543056Y189025I-2032J0D01*
G01*
X201422Y234950D02*
G03*
X201422Y234950I-2032J0D01*
G01*
X226822D02*
G03*
X226822Y234950I-2032J0D01*
G01*
M02*
