G04*
G04 #@! TF.GenerationSoftware,Altium Limited,Altium Designer,20.2.5 (213)*
G04*
G04 Layer_Color=65535*
%FSLAX44Y44*%
%MOMM*%
G71*
G04*
G04 #@! TF.SameCoordinates,7541D054-3382-41C0-95A3-E9C1F66121CC*
G04*
G04*
G04 #@! TF.FilePolarity,Positive*
G04*
G01*
G75*
%ADD10C,0.2000*%
%ADD11C,0.2500*%
%ADD12C,0.2540*%
%ADD13R,0.8000X2.8000*%
D10*
X190149Y292575D02*
G03*
X225203Y295009I16865J10750D01*
G01*
Y311642D02*
G03*
X190149Y314075I-18189J-8317D01*
G01*
X470601Y261006D02*
G03*
X473034Y296060I-8317J18189D01*
G01*
X451534D02*
G03*
X453967Y261006I10750J-16865D01*
G01*
X301567Y282144D02*
G03*
X299134Y247090I8317J-18189D01*
G01*
X320634D02*
G03*
X318201Y282144I-10750J16865D01*
G01*
X551881Y103526D02*
G03*
X554314Y138580I-8317J18189D01*
G01*
X532814D02*
G03*
X535247Y103526I10750J-16865D01*
G01*
X404437Y110694D02*
G03*
X402004Y75640I8317J-18189D01*
G01*
X423504D02*
G03*
X421071Y110694I-10750J16865D01*
G01*
X72803Y237982D02*
G03*
X37749Y240415I-18189J-8317D01*
G01*
Y218915D02*
G03*
X72803Y221348I16865J10750D01*
G01*
X491760Y181120D02*
Y227820D01*
X468360Y181120D02*
Y227820D01*
X561070Y178580D02*
Y225280D01*
X584470Y178580D02*
Y225280D01*
X188740Y255000D02*
X235440D01*
X188740Y278400D02*
X235440D01*
X193820Y332470D02*
X240520D01*
X193820Y355870D02*
X240520D01*
X580660Y249700D02*
Y296400D01*
X557260Y249700D02*
Y296400D01*
X186204Y35085D02*
X232904D01*
X186204Y58485D02*
X232904D01*
X526784Y249495D02*
Y296195D01*
X550184Y249495D02*
Y296195D01*
X370834Y224385D02*
Y326385D01*
X365834Y224385D02*
Y326385D01*
X412834Y224385D02*
Y326385D01*
X365834D02*
X412834D01*
X365834Y224385D02*
X412834D01*
X268144Y175025D02*
Y203025D01*
X321144D01*
X268144Y175025D02*
X321144D01*
X54784Y161055D02*
Y189055D01*
X107784D01*
X54784Y161055D02*
X107784D01*
X218714Y126305D02*
Y173005D01*
X195314Y126305D02*
Y173005D01*
X269414Y97555D02*
Y125555D01*
X322414D01*
X269414Y97555D02*
X322414D01*
X54784Y100095D02*
Y128095D01*
X107784D01*
X54784Y100095D02*
X107784D01*
X529324Y178375D02*
Y225075D01*
X552724Y178375D02*
Y225075D01*
X451484Y55665D02*
X498484Y66335D01*
X451484Y56165D02*
Y161865D01*
Y162365D02*
X498484Y151695D01*
Y66335D02*
Y151695D01*
X188740Y223250D02*
X235440D01*
X188740Y246650D02*
X235440D01*
X43024Y288715D02*
X150024D01*
X43024Y283715D02*
X150024D01*
X43024Y330715D02*
X150024D01*
Y283715D02*
Y330715D01*
X43024Y283715D02*
Y330715D01*
D11*
X463110Y191770D02*
G03*
X463110Y191770I-1250J0D01*
G01*
X592220Y214630D02*
G03*
X592220Y214630I-1250J0D01*
G01*
X200640Y284900D02*
G03*
X200640Y284900I-1250J0D01*
G01*
X205720Y362370D02*
G03*
X205720Y362370I-1250J0D01*
G01*
X588410Y285750D02*
G03*
X588410Y285750I-1250J0D01*
G01*
X198104Y64985D02*
G03*
X198104Y64985I-1250J0D01*
G01*
X557934Y285545D02*
G03*
X557934Y285545I-1250J0D01*
G01*
X393684Y217885D02*
G03*
X393684Y217885I-1250J0D01*
G01*
X190064Y136955D02*
G03*
X190064Y136955I-1250J0D01*
G01*
X560474Y214425D02*
G03*
X560474Y214425I-1250J0D01*
G01*
X481634Y50665D02*
G03*
X481634Y50665I-1250J0D01*
G01*
X200640Y253150D02*
G03*
X200640Y253150I-1250J0D01*
G01*
X123174Y337215D02*
G03*
X123174Y337215I-1250J0D01*
G01*
D12*
X160024Y355602D02*
Y365758D01*
X165103D01*
X166795Y364066D01*
Y360680D01*
X165103Y358987D01*
X160024D01*
X170181Y355602D02*
X173566D01*
X171874D01*
Y365758D01*
X170181Y364066D01*
X178645D02*
X180338Y365758D01*
X183723D01*
X185416Y364066D01*
Y357294D01*
X183723Y355602D01*
X180338D01*
X178645Y357294D01*
Y364066D01*
X160446Y262892D02*
Y273048D01*
X165524D01*
X167217Y271356D01*
Y267970D01*
X165524Y266277D01*
X160446D01*
X170603Y264584D02*
X172296Y262892D01*
X175681D01*
X177374Y264584D01*
Y271356D01*
X175681Y273048D01*
X172296D01*
X170603Y271356D01*
Y269663D01*
X172296Y267970D01*
X177374D01*
X564306Y163832D02*
Y173988D01*
X569384D01*
X571077Y172296D01*
Y168910D01*
X569384Y167217D01*
X564306D01*
X574463Y172296D02*
X576156Y173988D01*
X579541D01*
X581234Y172296D01*
Y170603D01*
X579541Y168910D01*
X581234Y167217D01*
Y165524D01*
X579541Y163832D01*
X576156D01*
X574463Y165524D01*
Y167217D01*
X576156Y168910D01*
X574463Y170603D01*
Y172296D01*
X576156Y168910D02*
X579541D01*
X444926Y205742D02*
Y215898D01*
X450004D01*
X451697Y214206D01*
Y210820D01*
X450004Y209127D01*
X444926D01*
X455083Y215898D02*
X461854D01*
Y214206D01*
X455083Y207434D01*
Y205742D01*
X560496Y300992D02*
Y311148D01*
X565574D01*
X567267Y309456D01*
Y306070D01*
X565574Y304377D01*
X560496D01*
X577424Y311148D02*
X574038Y309456D01*
X570653Y306070D01*
Y302684D01*
X572346Y300992D01*
X575731D01*
X577424Y302684D01*
Y304377D01*
X575731Y306070D01*
X570653D01*
X206166Y62232D02*
Y72388D01*
X211244D01*
X212937Y70696D01*
Y67310D01*
X211244Y65617D01*
X206166D01*
X223094Y72388D02*
X216323D01*
Y67310D01*
X219708Y69003D01*
X221401D01*
X223094Y67310D01*
Y63924D01*
X221401Y62232D01*
X218016D01*
X216323Y63924D01*
X49956Y345438D02*
Y336974D01*
X51649Y335282D01*
X55034D01*
X56727Y336974D01*
Y345438D01*
X60113Y343746D02*
X61806Y345438D01*
X65191D01*
X66884Y343746D01*
Y342053D01*
X65191Y340360D01*
X63498D01*
X65191D01*
X66884Y338667D01*
Y336974D01*
X65191Y335282D01*
X61806D01*
X60113Y336974D01*
X458896Y46988D02*
Y38524D01*
X460589Y36832D01*
X463974D01*
X465667Y38524D01*
Y46988D01*
X475824Y36832D02*
X469053D01*
X475824Y43603D01*
Y45296D01*
X474131Y46988D01*
X470746D01*
X469053Y45296D01*
X369149Y217168D02*
Y208704D01*
X370842Y207012D01*
X374227D01*
X375920Y208704D01*
Y217168D01*
X379306Y207012D02*
X382691D01*
X380998D01*
Y217168D01*
X379306Y215476D01*
X164252Y222456D02*
Y232613D01*
X169330D01*
X171023Y230920D01*
Y227535D01*
X169330Y225842D01*
X164252D01*
X179487Y222456D02*
Y232613D01*
X174409Y227535D01*
X181180D01*
X531286Y229872D02*
Y240028D01*
X536364D01*
X538057Y238336D01*
Y234950D01*
X536364Y233257D01*
X531286D01*
X541443Y238336D02*
X543136Y240028D01*
X546521D01*
X548214Y238336D01*
Y236643D01*
X546521Y234950D01*
X544828D01*
X546521D01*
X548214Y233257D01*
Y231564D01*
X546521Y229872D01*
X543136D01*
X541443Y231564D01*
X531286Y300992D02*
Y311148D01*
X536364D01*
X538057Y309456D01*
Y306070D01*
X536364Y304377D01*
X531286D01*
X548214Y300992D02*
X541443D01*
X548214Y307763D01*
Y309456D01*
X546521Y311148D01*
X543136D01*
X541443Y309456D01*
X197699Y184152D02*
Y194308D01*
X202777D01*
X204470Y192616D01*
Y189230D01*
X202777Y187537D01*
X197699D01*
X207856Y184152D02*
X211241D01*
X209548D01*
Y194308D01*
X207856Y192616D01*
X89326Y93978D02*
Y83822D01*
X94404D01*
X96097Y85514D01*
Y92286D01*
X94404Y93978D01*
X89326D01*
X104561Y83822D02*
Y93978D01*
X99483Y88900D01*
X106254D01*
X272206Y142238D02*
Y132082D01*
X277284D01*
X278977Y133774D01*
Y140546D01*
X277284Y142238D01*
X272206D01*
X282363Y140546D02*
X284056Y142238D01*
X287441D01*
X289134Y140546D01*
Y138853D01*
X287441Y137160D01*
X285748D01*
X287441D01*
X289134Y135467D01*
Y133774D01*
X287441Y132082D01*
X284056D01*
X282363Y133774D01*
X269666Y218438D02*
Y208282D01*
X274744D01*
X276437Y209974D01*
Y216746D01*
X274744Y218438D01*
X269666D01*
X286594Y208282D02*
X279823D01*
X286594Y215053D01*
Y216746D01*
X284901Y218438D01*
X281516D01*
X279823Y216746D01*
X93559Y203198D02*
Y193042D01*
X98637D01*
X100330Y194734D01*
Y201506D01*
X98637Y203198D01*
X93559D01*
X103716Y193042D02*
X107101D01*
X105408D01*
Y203198D01*
X103716Y201506D01*
X164254Y300567D02*
X162562Y298874D01*
Y295489D01*
X164254Y293796D01*
X171026D01*
X172718Y295489D01*
Y298874D01*
X171026Y300567D01*
X162562Y310724D02*
X164254Y307338D01*
X167640Y303953D01*
X171026D01*
X172718Y305646D01*
Y309031D01*
X171026Y310724D01*
X169333D01*
X167640Y309031D01*
Y303953D01*
X80857Y254846D02*
X79164Y256538D01*
X75779D01*
X74086Y254846D01*
Y248074D01*
X75779Y246382D01*
X79164D01*
X80857Y248074D01*
X91014Y256538D02*
X84243D01*
Y251460D01*
X87628Y253153D01*
X89321D01*
X91014Y251460D01*
Y248074D01*
X89321Y246382D01*
X85936D01*
X84243Y248074D01*
X567267Y96096D02*
X565574Y97788D01*
X562189D01*
X560496Y96096D01*
Y89324D01*
X562189Y87632D01*
X565574D01*
X567267Y89324D01*
X575731Y87632D02*
Y97788D01*
X570653Y92710D01*
X577424D01*
X378037Y94826D02*
X376344Y96518D01*
X372959D01*
X371266Y94826D01*
Y88054D01*
X372959Y86362D01*
X376344D01*
X378037Y88054D01*
X381423Y94826D02*
X383116Y96518D01*
X386501D01*
X388194Y94826D01*
Y93133D01*
X386501Y91440D01*
X384808D01*
X386501D01*
X388194Y89747D01*
Y88054D01*
X386501Y86362D01*
X383116D01*
X381423Y88054D01*
X459317Y325966D02*
X457624Y327658D01*
X454239D01*
X452546Y325966D01*
Y319194D01*
X454239Y317502D01*
X457624D01*
X459317Y319194D01*
X469474Y317502D02*
X462703D01*
X469474Y324273D01*
Y325966D01*
X467781Y327658D01*
X464396D01*
X462703Y325966D01*
X279400Y280246D02*
X277707Y281938D01*
X274322D01*
X272629Y280246D01*
Y273474D01*
X274322Y271782D01*
X277707D01*
X279400Y273474D01*
X282786Y271782D02*
X286171D01*
X284478D01*
Y281938D01*
X282786Y280246D01*
D13*
X318144Y189024D02*
D03*
X104784Y175054D02*
D03*
X319414Y111554D02*
D03*
X104784Y114094D02*
D03*
M02*
