G04*
G04 #@! TF.GenerationSoftware,Altium Limited,Altium Designer,20.2.5 (213)*
G04*
G04 Layer_Color=32768*
%FSLAX44Y44*%
%MOMM*%
G71*
G04*
G04 #@! TF.SameCoordinates,20EFB839-5586-4B36-B009-22FAA6886690*
G04*
G04*
G04 #@! TF.FilePolarity,Positive*
G04*
G01*
G75*
%ADD35C,0.1000*%
%ADD36C,0.0500*%
D35*
X361395Y188595D02*
X371395D01*
X366395Y183595D02*
Y193595D01*
D36*
X317895Y87595D02*
Y289595D01*
X414895Y87595D02*
Y289595D01*
X317895D02*
X414895D01*
X317895Y87595D02*
X414895D01*
X336245Y354995D02*
X409245D01*
X336245D02*
Y440995D01*
X409245D01*
Y354995D02*
Y440995D01*
X28905Y149195D02*
X101905D01*
Y63195D02*
Y149195D01*
X28905Y63195D02*
X101905D01*
X28905D02*
Y149195D01*
X169575Y468325D02*
Y541325D01*
X255575D01*
Y468325D02*
Y541325D01*
X169575Y468325D02*
X255575D01*
X109885Y307035D02*
Y380035D01*
X195885D01*
Y307035D02*
Y380035D01*
X109885Y307035D02*
X195885D01*
X449025Y187325D02*
X459025D01*
X454025Y182325D02*
Y192325D01*
X437825Y202775D02*
X470225D01*
Y171875D02*
Y202775D01*
X437825Y171875D02*
X470225D01*
X437825D02*
Y202775D01*
X36275Y305435D02*
X46275D01*
X41275Y300435D02*
Y310435D01*
X25075Y320885D02*
X57475D01*
Y289985D02*
Y320885D01*
X25075Y289985D02*
X57475D01*
X25075D02*
Y320885D01*
X212805Y271145D02*
X222805D01*
X217805Y266145D02*
Y276145D01*
X201605Y286595D02*
X234005D01*
Y255695D02*
Y286595D01*
X201605Y255695D02*
X234005D01*
X201605D02*
Y286595D01*
M02*
