G04*
G04 #@! TF.GenerationSoftware,Altium Limited,Altium Designer,20.2.5 (213)*
G04*
G04 Layer_Physical_Order=1*
G04 Layer_Color=255*
%FSLAX44Y44*%
%MOMM*%
G71*
G04*
G04 #@! TF.SameCoordinates,20EFB839-5586-4B36-B009-22FAA6886690*
G04*
G04*
G04 #@! TF.FilePolarity,Positive*
G04*
G01*
G75*
%ADD14C,0.2540*%
%ADD23C,1.3000*%
%ADD24R,1.3000X1.3000*%
%ADD25C,0.5080*%
%ADD26C,1.5240*%
%ADD27R,1.5000X1.5000*%
%ADD28C,1.5000*%
%ADD29R,1.6500X1.6500*%
%ADD30C,1.6500*%
%ADD31R,1.6500X1.6500*%
%ADD32C,1.4000*%
%ADD33C,1.6000*%
D14*
X294002Y521329D02*
X291462Y523868D01*
X286384D01*
X283845Y521329D01*
Y511172D01*
X286384Y508633D01*
X291462D01*
X294002Y511172D01*
Y516251D01*
X288923D01*
X299080Y518790D02*
Y508633D01*
Y513712D01*
X301619Y516251D01*
X304158Y518790D01*
X306698D01*
X316854Y508633D02*
X321933D01*
X324472Y511172D01*
Y516251D01*
X321933Y518790D01*
X316854D01*
X314315Y516251D01*
Y511172D01*
X316854Y508633D01*
X329550Y518790D02*
Y511172D01*
X332089Y508633D01*
X339707D01*
Y518790D01*
X344785Y503555D02*
Y518790D01*
X352403D01*
X354942Y516251D01*
Y511172D01*
X352403Y508633D01*
X344785D01*
X360020Y506094D02*
X370177D01*
X375255Y508633D02*
X380334D01*
X377795D01*
Y523868D01*
X375255Y521329D01*
X398108Y523868D02*
X393030Y521329D01*
X387951Y516251D01*
Y511172D01*
X390490Y508633D01*
X395569D01*
X398108Y511172D01*
Y513712D01*
X395569Y516251D01*
X387951D01*
X288948Y495933D02*
X287678Y497202D01*
X285139D01*
X283869Y495933D01*
Y494663D01*
X285139Y493394D01*
X287678D01*
X288948Y492124D01*
Y490855D01*
X287678Y489585D01*
X285139D01*
X283869Y490855D01*
X295296Y489585D02*
X292756D01*
X291487Y490855D01*
Y493394D01*
X292756Y494663D01*
X295296D01*
X296565Y493394D01*
Y492124D01*
X291487D01*
X299104Y489585D02*
Y494663D01*
X302913D01*
X304183Y493394D01*
Y489585D01*
X306722D02*
X310531D01*
X311800Y490855D01*
X310531Y492124D01*
X307991D01*
X306722Y493394D01*
X307991Y494663D01*
X311800D01*
X315609Y489585D02*
X318148D01*
X319418Y490855D01*
Y493394D01*
X318148Y494663D01*
X315609D01*
X314339Y493394D01*
Y490855D01*
X315609Y489585D01*
X321957Y494663D02*
Y489585D01*
Y492124D01*
X323227Y493394D01*
X324496Y494663D01*
X325766D01*
X337192Y497202D02*
X339731D01*
X338462D01*
Y489585D01*
X337192D01*
X339731D01*
X343540D02*
Y494663D01*
X347349D01*
X348618Y493394D01*
Y489585D01*
X352427Y495933D02*
Y494663D01*
X351157D01*
X353697D01*
X352427D01*
Y490855D01*
X353697Y489585D01*
X361314D02*
X358775D01*
X357505Y490855D01*
Y493394D01*
X358775Y494663D01*
X361314D01*
X362584Y493394D01*
Y492124D01*
X357505D01*
X365123Y494663D02*
Y489585D01*
Y492124D01*
X366393Y493394D01*
X367662Y494663D01*
X368932D01*
X374010Y489585D02*
Y495933D01*
Y493394D01*
X372741D01*
X375280D01*
X374010D01*
Y495933D01*
X375280Y497202D01*
X380358Y494663D02*
X382897D01*
X384167Y493394D01*
Y489585D01*
X380358D01*
X379088Y490855D01*
X380358Y492124D01*
X384167D01*
X391784Y494663D02*
X387976D01*
X386706Y493394D01*
Y490855D01*
X387976Y489585D01*
X391784D01*
X398132D02*
X395593D01*
X394324Y490855D01*
Y493394D01*
X395593Y494663D01*
X398132D01*
X399402Y493394D01*
Y492124D01*
X394324D01*
X409559Y497202D02*
Y490855D01*
X410828Y489585D01*
X413367D01*
X414637Y490855D01*
Y497202D01*
X417176Y489585D02*
Y494663D01*
X420985D01*
X422254Y493394D01*
Y489585D01*
X424794D02*
X427333D01*
X426063D01*
Y494663D01*
X424794D01*
X432411Y495933D02*
Y494663D01*
X431142D01*
X433681D01*
X432411D01*
Y490855D01*
X433681Y489585D01*
D23*
X364015Y55245D02*
D03*
D24*
X384015D02*
D03*
D25*
X126365Y168711D02*
Y172919D01*
X107315Y167005D02*
X108585Y165735D01*
X123389D01*
X126365Y168711D01*
X129341Y175895D02*
X212289D01*
X126365Y172919D02*
X129341Y175895D01*
X215265Y178871D02*
Y220345D01*
X212289Y175895D02*
X215265Y178871D01*
X67945Y295275D02*
Y501849D01*
X70921Y504825D02*
X244075D01*
X67945Y501849D02*
X70921Y504825D01*
X67945Y295275D02*
X73025Y290195D01*
X158115Y247451D02*
Y287219D01*
X155139Y290195D02*
X158115Y287219D01*
X73025Y290195D02*
X155139D01*
X161091Y244475D02*
X272415D01*
X158115Y247451D02*
X161091Y244475D01*
X272415D02*
X328295Y188595D01*
X305435Y140771D02*
Y152599D01*
X308411Y137795D02*
X328295D01*
X305435Y140771D02*
X308411Y137795D01*
X253365Y155575D02*
X302459D01*
X305435Y152599D01*
X388421Y187325D02*
X403225D01*
X384015Y55245D02*
Y182919D01*
X388421Y187325D01*
X403225D02*
X404495Y188595D01*
X291465Y302061D02*
Y336749D01*
X267335Y339725D02*
X288489D01*
X291465Y336749D01*
X294441Y299085D02*
X424379D01*
X291465Y302061D02*
X294441Y299085D01*
X427355Y166171D02*
Y296109D01*
X424379Y299085D02*
X427355Y296109D01*
X404495Y163195D02*
X424379D01*
X427355Y166171D01*
X362585Y56675D02*
Y185619D01*
X328295Y188595D02*
X359609D01*
X362585Y185619D01*
Y56675D02*
X364015Y55245D01*
X382905Y56355D02*
X384015Y55245D01*
X222885Y79375D02*
X224155Y80645D01*
D26*
X475313Y550850D02*
D03*
X23481Y552705D02*
D03*
X22809Y21265D02*
D03*
X476362Y21920D02*
D03*
D27*
X328295Y264795D02*
D03*
X41275Y244475D02*
D03*
X187325Y432435D02*
D03*
D28*
X328295Y239395D02*
D03*
Y213995D02*
D03*
Y188595D02*
D03*
Y163195D02*
D03*
Y137795D02*
D03*
Y112395D02*
D03*
X404495Y264795D02*
D03*
Y239395D02*
D03*
Y213995D02*
D03*
Y188595D02*
D03*
Y163195D02*
D03*
Y137795D02*
D03*
Y112395D02*
D03*
X66675Y244475D02*
D03*
X161925Y432435D02*
D03*
X136525D02*
D03*
D29*
X347745Y379495D02*
D03*
X90405Y124695D02*
D03*
D30*
X372745Y429495D02*
D03*
X397745Y379495D02*
D03*
X65405Y74695D02*
D03*
X40405Y124695D02*
D03*
X244075Y504825D02*
D03*
X194075Y479825D02*
D03*
X184385Y343535D02*
D03*
X134385Y318535D02*
D03*
D31*
X194075Y529825D02*
D03*
X134385Y368535D02*
D03*
D32*
X452755Y241935D02*
D03*
Y318135D02*
D03*
X292735Y259715D02*
D03*
Y183515D02*
D03*
X399415Y324485D02*
D03*
X323215D02*
D03*
X107315Y243205D02*
D03*
Y167005D02*
D03*
X238125Y339725D02*
D03*
Y415925D02*
D03*
X267335Y263525D02*
D03*
Y339725D02*
D03*
X253365Y79375D02*
D03*
Y155575D02*
D03*
X222885D02*
D03*
Y79375D02*
D03*
X197485Y76835D02*
D03*
X121285D02*
D03*
X215265Y220345D02*
D03*
X139065D02*
D03*
D33*
X454025Y187325D02*
D03*
X41275Y305435D02*
D03*
X217805Y271145D02*
D03*
M02*
