G04*
G04 #@! TF.GenerationSoftware,Altium Limited,Altium Designer,20.2.5 (213)*
G04*
G04 Layer_Physical_Order=2*
G04 Layer_Color=16711680*
%FSLAX44Y44*%
%MOMM*%
G71*
G04*
G04 #@! TF.SameCoordinates,20EFB839-5586-4B36-B009-22FAA6886690*
G04*
G04*
G04 #@! TF.FilePolarity,Positive*
G04*
G01*
G75*
%ADD23C,1.3000*%
%ADD24R,1.3000X1.3000*%
%ADD25C,0.5080*%
%ADD26C,1.5240*%
%ADD27R,1.5000X1.5000*%
%ADD28C,1.5000*%
%ADD29R,1.6500X1.6500*%
%ADD30C,1.6500*%
%ADD31R,1.6500X1.6500*%
%ADD32C,1.4000*%
%ADD33C,1.6000*%
D23*
X364015Y55245D02*
D03*
D24*
X384015D02*
D03*
D25*
X327145Y215145D02*
X328295Y213995D01*
X267335Y216971D02*
X270311Y213995D01*
X328295D01*
X267335Y216971D02*
Y263525D01*
X399415Y324485D02*
X443991D01*
X450341Y318135D01*
X452755D01*
Y241935D02*
X453390Y241300D01*
Y187960D02*
Y241300D01*
Y187960D02*
X454025Y187325D01*
X452755Y139501D02*
Y186055D01*
Y115371D02*
Y139501D01*
X404495Y112395D02*
X449779D01*
X452755Y115371D01*
X404495Y137795D02*
X405765Y136525D01*
X449779D01*
X452755Y139501D01*
Y186055D02*
X454025Y187325D01*
X142041Y106045D02*
X193239D01*
X197485Y76835D02*
Y101799D01*
X193239Y106045D02*
X197485Y101799D01*
X139065Y109021D02*
Y220345D01*
Y109021D02*
X142041Y106045D01*
X192405Y135255D02*
Y231339D01*
X107315Y243205D02*
X180539D01*
X192405Y231339D01*
Y135255D02*
X196215Y131445D01*
X221615Y80645D02*
Y128469D01*
X218639Y131445D02*
X221615Y128469D01*
X196215Y131445D02*
X218639D01*
X221615Y80645D02*
X222885Y79375D01*
X216535Y269875D02*
X217805Y271145D01*
X216535Y221615D02*
Y269875D01*
X215265Y220345D02*
X216535Y221615D01*
X65405Y243205D02*
X107315D01*
X65405Y74695D02*
X66475Y75765D01*
X120215D01*
X121285Y76835D01*
X91241Y165735D02*
X106045D01*
X88265Y126835D02*
X90405Y124695D01*
X88265Y126835D02*
Y162759D01*
X91241Y165735D01*
X106045D02*
X107315Y167005D01*
X40005Y243205D02*
X40205Y243005D01*
Y124895D02*
Y243005D01*
Y124895D02*
X40405Y124695D01*
X40005Y243205D02*
Y304165D01*
X372745Y239831D02*
Y429495D01*
X328295Y239395D02*
X349104D01*
X351644Y236855D01*
X369769D01*
X372745Y239831D01*
X323215Y324485D02*
X324922Y322778D01*
Y268168D02*
Y322778D01*
Y268168D02*
X328295Y264795D01*
X307975Y243641D02*
Y255469D01*
X292735Y259715D02*
X294005Y258445D01*
X304999D01*
X307975Y255469D01*
X310951Y240665D02*
X327025D01*
X307975Y243641D02*
X310951Y240665D01*
X327025D02*
X328295Y239395D01*
X291465Y78105D02*
X298649D01*
X254635D02*
X291465D01*
Y182245D02*
X292735Y183515D01*
X291465Y78105D02*
Y182245D01*
X346075Y45521D02*
Y160219D01*
X328295Y163195D02*
X343099D01*
X346075Y160219D01*
X199191Y42545D02*
X343099D01*
X346075Y45521D01*
X196215D02*
Y75565D01*
Y45521D02*
X199191Y42545D01*
X196215Y75565D02*
X197485Y76835D01*
X301625Y81081D02*
Y110689D01*
X327025Y113665D02*
X328295Y112395D01*
X304601Y113665D02*
X327025D01*
X301625Y110689D02*
X304601Y113665D01*
X298649Y78105D02*
X301625Y81081D01*
X253365Y79375D02*
X254635Y78105D01*
X222885Y155575D02*
X253365D01*
X185655Y344805D02*
X212289D01*
X217805Y271145D02*
Y339289D01*
X212289Y344805D02*
X217805Y339289D01*
X184385Y343535D02*
X185655Y344805D01*
X247015Y265231D02*
Y268169D01*
X266963Y263153D02*
X267335Y263525D01*
X249093Y263153D02*
X266963D01*
X247015Y265231D02*
X249093Y263153D01*
X217805Y271145D02*
X244039D01*
X247015Y268169D01*
X238125Y339725D02*
X267335D01*
X149225Y458271D02*
Y527249D01*
X193675Y530225D02*
X194075Y529825D01*
X152201Y530225D02*
X193675D01*
X149225Y527249D02*
X152201Y530225D01*
Y455295D02*
X184349D01*
X149225Y458271D02*
X152201Y455295D01*
X187325Y432435D02*
Y452319D01*
X184349Y455295D02*
X187325Y452319D01*
X220345Y402391D02*
Y414219D01*
X236855Y417195D02*
X238125Y415925D01*
X223321Y417195D02*
X236855D01*
X220345Y414219D02*
X223321Y417195D01*
X163631Y399415D02*
X217369D01*
X220345Y402391D01*
X160655D02*
Y431165D01*
Y402391D02*
X163631Y399415D01*
X160655Y431165D02*
X161925Y432435D01*
X84455Y321511D02*
Y429459D01*
X87431Y318535D02*
X134385D01*
X84455Y321511D02*
X87431Y318535D01*
Y432435D02*
X136525D01*
X84455Y429459D02*
X87431Y432435D01*
X397745Y379495D02*
X398580Y378660D01*
Y325320D02*
Y378660D01*
Y325320D02*
X399415Y324485D01*
X139065Y220345D02*
X140335Y219075D01*
X222885Y155575D02*
X223520Y154940D01*
D26*
X475313Y550850D02*
D03*
X23481Y552705D02*
D03*
X22809Y21265D02*
D03*
X476362Y21920D02*
D03*
D27*
X328295Y264795D02*
D03*
X41275Y244475D02*
D03*
X187325Y432435D02*
D03*
D28*
X328295Y239395D02*
D03*
Y213995D02*
D03*
Y188595D02*
D03*
Y163195D02*
D03*
Y137795D02*
D03*
Y112395D02*
D03*
X404495Y264795D02*
D03*
Y239395D02*
D03*
Y213995D02*
D03*
Y188595D02*
D03*
Y163195D02*
D03*
Y137795D02*
D03*
Y112395D02*
D03*
X66675Y244475D02*
D03*
X161925Y432435D02*
D03*
X136525D02*
D03*
D29*
X347745Y379495D02*
D03*
X90405Y124695D02*
D03*
D30*
X372745Y429495D02*
D03*
X397745Y379495D02*
D03*
X65405Y74695D02*
D03*
X40405Y124695D02*
D03*
X244075Y504825D02*
D03*
X194075Y479825D02*
D03*
X184385Y343535D02*
D03*
X134385Y318535D02*
D03*
D31*
X194075Y529825D02*
D03*
X134385Y368535D02*
D03*
D32*
X452755Y241935D02*
D03*
Y318135D02*
D03*
X292735Y259715D02*
D03*
Y183515D02*
D03*
X399415Y324485D02*
D03*
X323215D02*
D03*
X107315Y243205D02*
D03*
Y167005D02*
D03*
X238125Y339725D02*
D03*
Y415925D02*
D03*
X267335Y263525D02*
D03*
Y339725D02*
D03*
X253365Y79375D02*
D03*
Y155575D02*
D03*
X222885D02*
D03*
Y79375D02*
D03*
X197485Y76835D02*
D03*
X121285D02*
D03*
X215265Y220345D02*
D03*
X139065D02*
D03*
D33*
X454025Y187325D02*
D03*
X41275Y305435D02*
D03*
X217805Y271145D02*
D03*
M02*
