G04*
G04 #@! TF.GenerationSoftware,Altium Limited,Altium Designer,20.2.5 (213)*
G04*
G04 Layer_Color=2752767*
%FSLAX44Y44*%
%MOMM*%
G71*
G04*
G04 #@! TF.SameCoordinates,20EFB839-5586-4B36-B009-22FAA6886690*
G04*
G04*
G04 #@! TF.FilePolarity,Positive*
G04*
G01*
G75*
%ADD37C,0.0508*%
%ADD38C,0.0677*%
D37*
X473281Y548818D02*
Y552882D01*
X477345D01*
Y548818D01*
X473281D01*
X21449Y550673D02*
Y554737D01*
X25513D01*
Y550673D01*
X21449D01*
X20777Y19233D02*
Y23297D01*
X24841D01*
Y19233D01*
X20777D01*
X474329Y19888D02*
Y23952D01*
X478394D01*
Y19888D01*
X474329D01*
X347745Y377463D02*
X345713Y381527D01*
X349777D01*
X347745Y377463D01*
X372745Y427463D02*
X370713Y431527D01*
X374777D01*
X372745Y427463D01*
X397745Y377463D02*
X395713Y381527D01*
X399777D01*
X397745Y377463D01*
X90405Y122663D02*
X88373Y126727D01*
X92437D01*
X90405Y122663D01*
X65405Y72663D02*
X63373Y76727D01*
X67437D01*
X65405Y72663D01*
X40405Y122663D02*
X38373Y126727D01*
X42437D01*
X40405Y122663D01*
X194075Y527793D02*
X192043Y531857D01*
X196107D01*
X194075Y527793D01*
X244075Y502793D02*
X242043Y506857D01*
X246107D01*
X244075Y502793D01*
X194075Y477793D02*
X192043Y481857D01*
X196107D01*
X194075Y477793D01*
X134385Y366503D02*
X132353Y370567D01*
X136417D01*
X134385Y366503D01*
X184385Y341503D02*
X182353Y345567D01*
X186417D01*
X184385Y341503D01*
X134385Y316503D02*
X132353Y320567D01*
X136417D01*
X134385Y316503D01*
X452755Y239903D02*
X453771Y240919D01*
X454787D01*
X453771Y241935D01*
X454787Y242951D01*
X453771D01*
X452755Y243967D01*
X451739Y242951D01*
X450723D01*
X451739Y241935D01*
X450723Y240919D01*
X451739D01*
X452755Y239903D01*
Y316103D02*
X453771Y317119D01*
X454787D01*
X453771Y318135D01*
X454787Y319151D01*
X453771D01*
X452755Y320167D01*
X451739Y319151D01*
X450723D01*
X451739Y318135D01*
X450723Y317119D01*
X451739D01*
X452755Y316103D01*
X292735Y257683D02*
X293751Y258699D01*
X294767D01*
X293751Y259715D01*
X294767Y260731D01*
X293751D01*
X292735Y261747D01*
X291719Y260731D01*
X290703D01*
X291719Y259715D01*
X290703Y258699D01*
X291719D01*
X292735Y257683D01*
Y181483D02*
X293751Y182499D01*
X294767D01*
X293751Y183515D01*
X294767Y184531D01*
X293751D01*
X292735Y185547D01*
X291719Y184531D01*
X290703D01*
X291719Y183515D01*
X290703Y182499D01*
X291719D01*
X292735Y181483D01*
X399415Y322453D02*
X400431Y323469D01*
X401447D01*
X400431Y324485D01*
X401447Y325501D01*
X400431D01*
X399415Y326517D01*
X398399Y325501D01*
X397383D01*
X398399Y324485D01*
X397383Y323469D01*
X398399D01*
X399415Y322453D01*
X323215D02*
X324231Y323469D01*
X325247D01*
X324231Y324485D01*
X325247Y325501D01*
X324231D01*
X323215Y326517D01*
X322199Y325501D01*
X321183D01*
X322199Y324485D01*
X321183Y323469D01*
X322199D01*
X323215Y322453D01*
X454025Y185293D02*
X451993Y189357D01*
X456057D01*
X454025Y185293D01*
X107315Y241173D02*
X108331Y242189D01*
X109347D01*
X108331Y243205D01*
X109347Y244221D01*
X108331D01*
X107315Y245237D01*
X106299Y244221D01*
X105283D01*
X106299Y243205D01*
X105283Y242189D01*
X106299D01*
X107315Y241173D01*
Y164973D02*
X108331Y165989D01*
X109347D01*
X108331Y167005D01*
X109347Y168021D01*
X108331D01*
X107315Y169037D01*
X106299Y168021D01*
X105283D01*
X106299Y167005D01*
X105283Y165989D01*
X106299D01*
X107315Y164973D01*
X238125Y337693D02*
X239141Y338709D01*
X240157D01*
X239141Y339725D01*
X240157Y340741D01*
X239141D01*
X238125Y341757D01*
X237109Y340741D01*
X236093D01*
X237109Y339725D01*
X236093Y338709D01*
X237109D01*
X238125Y337693D01*
Y413893D02*
X239141Y414909D01*
X240157D01*
X239141Y415925D01*
X240157Y416941D01*
X239141D01*
X238125Y417957D01*
X237109Y416941D01*
X236093D01*
X237109Y415925D01*
X236093Y414909D01*
X237109D01*
X238125Y413893D01*
X267335Y261493D02*
X268351Y262509D01*
X269367D01*
X268351Y263525D01*
X269367Y264541D01*
X268351D01*
X267335Y265557D01*
X266319Y264541D01*
X265303D01*
X266319Y263525D01*
X265303Y262509D01*
X266319D01*
X267335Y261493D01*
Y337693D02*
X268351Y338709D01*
X269367D01*
X268351Y339725D01*
X269367Y340741D01*
X268351D01*
X267335Y341757D01*
X266319Y340741D01*
X265303D01*
X266319Y339725D01*
X265303Y338709D01*
X266319D01*
X267335Y337693D01*
X253365Y77343D02*
X254381Y78359D01*
X255397D01*
X254381Y79375D01*
X255397Y80391D01*
X254381D01*
X253365Y81407D01*
X252349Y80391D01*
X251333D01*
X252349Y79375D01*
X251333Y78359D01*
X252349D01*
X253365Y77343D01*
Y153543D02*
X254381Y154559D01*
X255397D01*
X254381Y155575D01*
X255397Y156591D01*
X254381D01*
X253365Y157607D01*
X252349Y156591D01*
X251333D01*
X252349Y155575D01*
X251333Y154559D01*
X252349D01*
X253365Y153543D01*
X222885D02*
X223901Y154559D01*
X224917D01*
X223901Y155575D01*
X224917Y156591D01*
X223901D01*
X222885Y157607D01*
X221869Y156591D01*
X220853D01*
X221869Y155575D01*
X220853Y154559D01*
X221869D01*
X222885Y153543D01*
Y77343D02*
X223901Y78359D01*
X224917D01*
X223901Y79375D01*
X224917Y80391D01*
X223901D01*
X222885Y81407D01*
X221869Y80391D01*
X220853D01*
X221869Y79375D01*
X220853Y78359D01*
X221869D01*
X222885Y77343D01*
X197485Y74803D02*
X198501Y75819D01*
X199517D01*
X198501Y76835D01*
X199517Y77851D01*
X198501D01*
X197485Y78867D01*
X196469Y77851D01*
X195453D01*
X196469Y76835D01*
X195453Y75819D01*
X196469D01*
X197485Y74803D01*
X121285D02*
X122301Y75819D01*
X123317D01*
X122301Y76835D01*
X123317Y77851D01*
X122301D01*
X121285Y78867D01*
X120269Y77851D01*
X119253D01*
X120269Y76835D01*
X119253Y75819D01*
X120269D01*
X121285Y74803D01*
X215265Y218313D02*
X216281Y219329D01*
X217297D01*
X216281Y220345D01*
X217297Y221361D01*
X216281D01*
X215265Y222377D01*
X214249Y221361D01*
X213233D01*
X214249Y220345D01*
X213233Y219329D01*
X214249D01*
X215265Y218313D01*
X139065D02*
X140081Y219329D01*
X141097D01*
X140081Y220345D01*
X141097Y221361D01*
X140081D01*
X139065Y222377D01*
X138049Y221361D01*
X137033D01*
X138049Y220345D01*
X137033Y219329D01*
X138049D01*
X139065Y218313D01*
X41275Y303403D02*
X39243Y307467D01*
X43307D01*
X41275Y303403D01*
X361983Y53213D02*
X362999Y55245D01*
X361983Y57277D01*
X364015Y56261D01*
X366047Y57277D01*
X365031Y55245D01*
X366047Y53213D01*
X364015Y54229D01*
X361983Y53213D01*
X381983D02*
X382999Y55245D01*
X381983Y57277D01*
X384015Y56261D01*
X386047Y57277D01*
X385031Y55245D01*
X386047Y53213D01*
X384015Y54229D01*
X381983Y53213D01*
X217805Y269113D02*
X215773Y273177D01*
X219837D01*
X217805Y269113D01*
D38*
X330327Y264795D02*
G03*
X330327Y264795I-2032J0D01*
G01*
Y239395D02*
G03*
X330327Y239395I-2032J0D01*
G01*
Y213995D02*
G03*
X330327Y213995I-2032J0D01*
G01*
Y188595D02*
G03*
X330327Y188595I-2032J0D01*
G01*
Y163195D02*
G03*
X330327Y163195I-2032J0D01*
G01*
Y137795D02*
G03*
X330327Y137795I-2032J0D01*
G01*
Y112395D02*
G03*
X330327Y112395I-2032J0D01*
G01*
X406527Y264795D02*
G03*
X406527Y264795I-2032J0D01*
G01*
Y239395D02*
G03*
X406527Y239395I-2032J0D01*
G01*
Y213995D02*
G03*
X406527Y213995I-2032J0D01*
G01*
Y188595D02*
G03*
X406527Y188595I-2032J0D01*
G01*
Y163195D02*
G03*
X406527Y163195I-2032J0D01*
G01*
Y137795D02*
G03*
X406527Y137795I-2032J0D01*
G01*
Y112395D02*
G03*
X406527Y112395I-2032J0D01*
G01*
X68707Y244475D02*
G03*
X68707Y244475I-2032J0D01*
G01*
X43307D02*
G03*
X43307Y244475I-2032J0D01*
G01*
X189357Y432435D02*
G03*
X189357Y432435I-2032J0D01*
G01*
X163957D02*
G03*
X163957Y432435I-2032J0D01*
G01*
X138557D02*
G03*
X138557Y432435I-2032J0D01*
G01*
M02*
