G04*
G04 #@! TF.GenerationSoftware,Altium Limited,Altium Designer,20.2.5 (213)*
G04*
G04 Layer_Color=65535*
%FSLAX44Y44*%
%MOMM*%
G71*
G04*
G04 #@! TF.SameCoordinates,20EFB839-5586-4B36-B009-22FAA6886690*
G04*
G04*
G04 #@! TF.FilePolarity,Positive*
G04*
G01*
G75*
%ADD10C,0.2000*%
%ADD11C,0.2500*%
%ADD12C,0.6000*%
%ADD13C,0.1270*%
%ADD14C,0.2540*%
D10*
X360045Y287095D02*
G03*
X372745Y287095I6350J0D01*
G01*
X348745Y351495D02*
G03*
X348745Y351495I-1000J0D01*
G01*
X91405Y152695D02*
G03*
X91405Y152695I-1000J0D01*
G01*
X167075Y529825D02*
G03*
X167075Y529825I-1000J0D01*
G01*
X107385Y368535D02*
G03*
X107385Y368535I-1000J0D01*
G01*
X339895Y90095D02*
Y287095D01*
X392895Y90095D02*
Y287095D01*
X339895D02*
X360045D01*
X372745D02*
X392895D01*
X339895Y90095D02*
X392895D01*
X452755Y254635D02*
X460375D01*
Y305435D01*
X445135D02*
X460375D01*
X445135Y254635D02*
Y305435D01*
Y254635D02*
X452755D01*
Y305435D02*
Y307721D01*
Y252349D02*
Y254635D01*
X285115Y247015D02*
X292735D01*
X285115Y196215D02*
Y247015D01*
Y196215D02*
X300355D01*
Y247015D01*
X292735D02*
X300355D01*
X292735Y193929D02*
Y196215D01*
Y247015D02*
Y249301D01*
X386715Y324485D02*
Y332105D01*
X335915D02*
X386715D01*
X335915Y316865D02*
Y332105D01*
Y316865D02*
X386715D01*
Y324485D01*
X333629D02*
X335915D01*
X386715D02*
X389001D01*
X468225Y173875D02*
Y200775D01*
X439825D02*
X468225D01*
X439825Y173875D02*
Y200775D01*
Y173875D02*
X468225D01*
X99695Y230505D02*
X107315D01*
X99695Y179705D02*
Y230505D01*
Y179705D02*
X114935D01*
Y230505D01*
X107315D02*
X114935D01*
X107315Y177419D02*
Y179705D01*
Y230505D02*
Y232791D01*
X238125Y352425D02*
X245745D01*
Y403225D01*
X230505D02*
X245745D01*
X230505Y352425D02*
Y403225D01*
Y352425D02*
X238125D01*
Y403225D02*
Y405511D01*
Y350139D02*
Y352425D01*
X70908Y185208D02*
Y219075D01*
X66675Y180975D02*
X70908Y185208D01*
X62442D02*
X66675Y180975D01*
X62442Y185208D02*
Y219075D01*
X45508Y185208D02*
Y219075D01*
X41275Y180975D02*
X45508Y185208D01*
X37042D02*
X41275Y180975D01*
X37042Y185208D02*
Y219075D01*
X28575Y231775D02*
X79375D01*
X28575Y219075D02*
Y231775D01*
X79375Y219075D02*
Y231775D01*
X28575Y219075D02*
X79375D01*
X267335Y276225D02*
X274955D01*
Y327025D01*
X259715D02*
X274955D01*
X259715Y276225D02*
Y327025D01*
Y276225D02*
X267335D01*
Y327025D02*
Y329311D01*
Y273939D02*
Y276225D01*
X253365Y92075D02*
X260985D01*
Y142875D01*
X245745D02*
X260985D01*
X245745Y92075D02*
Y142875D01*
Y92075D02*
X253365D01*
Y142875D02*
Y145161D01*
Y89789D02*
Y92075D01*
X215265Y142875D02*
X222885D01*
X215265Y92075D02*
Y142875D01*
Y92075D02*
X230505D01*
Y142875D01*
X222885D02*
X230505D01*
X222885Y89789D02*
Y92075D01*
Y142875D02*
Y145161D01*
X184785Y76835D02*
Y84455D01*
X133985D02*
X184785D01*
X133985Y69215D02*
Y84455D01*
Y69215D02*
X184785D01*
Y76835D01*
X131699D02*
X133985D01*
X184785D02*
X187071D01*
X202565Y220345D02*
Y227965D01*
X151765D02*
X202565D01*
X151765Y212725D02*
Y227965D01*
Y212725D02*
X202565D01*
Y220345D01*
X149479D02*
X151765D01*
X202565D02*
X204851D01*
X123825Y445135D02*
X200025D01*
X123825Y419735D02*
Y445135D01*
Y419735D02*
X200025D01*
Y445135D01*
X55475Y291985D02*
Y318885D01*
X27075D02*
X55475D01*
X27075Y291985D02*
Y318885D01*
Y291985D02*
X55475D01*
X395765Y44245D02*
Y66245D01*
X352265D02*
X395765D01*
X352265Y44245D02*
Y66245D01*
Y44245D02*
X395765D01*
X232005Y257695D02*
Y284595D01*
X203605D02*
X232005D01*
X203605Y257695D02*
Y284595D01*
Y257695D02*
X232005D01*
D11*
X329545Y277795D02*
G03*
X329545Y277795I-1250J0D01*
G01*
X401265Y55245D02*
G03*
X401265Y55245I-1250J0D01*
G01*
D12*
X352895Y277095D02*
G03*
X352895Y277095I-3000J0D01*
G01*
D13*
X406795Y390945D02*
Y424495D01*
X392745Y438495D02*
X406795Y424495D01*
X384245Y438495D02*
X392745D01*
X354045D02*
X361245D01*
X338695Y423095D02*
X354045Y438495D01*
X338695Y390945D02*
Y423095D01*
X406795Y357495D02*
Y368045D01*
X385445Y357495D02*
X406795D01*
X385445D02*
Y361995D01*
X360045D02*
X385445D01*
X360045Y357495D02*
Y361995D01*
X338695Y357495D02*
X360045D01*
X338695D02*
Y368045D01*
X31355Y79695D02*
Y113245D01*
Y79695D02*
X45405Y65695D01*
X53905D01*
X76905D02*
X84105D01*
X99455Y81095D01*
Y113245D01*
X31355Y136145D02*
Y146695D01*
X52705D01*
Y142195D02*
Y146695D01*
Y142195D02*
X78105D01*
Y146695D01*
X99455D01*
Y136145D02*
Y146695D01*
X205525Y470775D02*
X239075D01*
X253075Y484825D01*
Y493325D01*
Y516325D02*
Y523525D01*
X237675Y538875D02*
X253075Y523525D01*
X205525Y538875D02*
X237675D01*
X172075Y470775D02*
X182625D01*
X172075D02*
Y492125D01*
X176575D01*
Y517525D01*
X172075D02*
X176575D01*
X172075D02*
Y538875D01*
X182625D01*
X145835Y309485D02*
X179385D01*
X193385Y323535D01*
Y332035D01*
Y355035D02*
Y362235D01*
X177985Y377585D02*
X193385Y362235D01*
X145835Y377585D02*
X177985D01*
X112385Y309485D02*
X122935D01*
X112385D02*
Y330835D01*
X116885D01*
Y356235D01*
X112385D02*
X116885D01*
X112385D02*
Y377585D01*
X122935D01*
D14*
X320294Y312669D02*
Y299973D01*
X322833Y297434D01*
X327911D01*
X330451Y299973D01*
Y312669D01*
X335529Y297434D02*
X340607D01*
X338068D01*
Y312669D01*
X335529Y310130D01*
X215269Y454027D02*
Y464183D01*
X220347D01*
X222040Y462491D01*
Y459105D01*
X220347Y457412D01*
X215269D01*
X218655D02*
X222040Y454027D01*
X225426D02*
X228811D01*
X227119D01*
Y464183D01*
X225426Y462491D01*
X238968Y454027D02*
Y464183D01*
X233890Y459105D01*
X240661D01*
X116209Y387987D02*
Y398143D01*
X121287D01*
X122980Y396451D01*
Y393065D01*
X121287Y391372D01*
X116209D01*
X119595D02*
X122980Y387987D01*
X126366D02*
X129751D01*
X128059D01*
Y398143D01*
X126366Y396451D01*
X134830D02*
X136523Y398143D01*
X139908D01*
X141601Y396451D01*
Y394758D01*
X139908Y393065D01*
X138215D01*
X139908D01*
X141601Y391372D01*
Y389679D01*
X139908Y387987D01*
X136523D01*
X134830Y389679D01*
X330833Y397301D02*
X320677D01*
Y402379D01*
X322369Y404072D01*
X325755D01*
X327448Y402379D01*
Y397301D01*
Y400687D02*
X330833Y404072D01*
X322369Y407458D02*
X320677Y409151D01*
Y412536D01*
X322369Y414229D01*
X324062D01*
X325755Y412536D01*
X327448Y414229D01*
X329141D01*
X330833Y412536D01*
Y409151D01*
X329141Y407458D01*
X327448D01*
X325755Y409151D01*
X324062Y407458D01*
X322369D01*
X325755Y409151D02*
Y412536D01*
X108587Y123399D02*
X118743D01*
Y118321D01*
X117051Y116628D01*
X113665D01*
X111972Y118321D01*
Y123399D01*
Y120013D02*
X108587Y116628D01*
Y106471D02*
Y113242D01*
X115358Y106471D01*
X117051D01*
X118743Y108164D01*
Y111549D01*
X117051Y113242D01*
X245747Y315591D02*
X255903D01*
Y310513D01*
X254211Y308820D01*
X250825D01*
X249132Y310513D01*
Y315591D01*
Y312205D02*
X245747Y308820D01*
Y305434D02*
Y302049D01*
Y303741D01*
X255903D01*
X254211Y305434D01*
X245747Y290199D02*
Y296970D01*
X252518Y290199D01*
X254211D01*
X255903Y291892D01*
Y295277D01*
X254211Y296970D01*
X215267Y386288D02*
X225423D01*
Y381210D01*
X223731Y379517D01*
X220345D01*
X218652Y381210D01*
Y386288D01*
Y382902D02*
X215267Y379517D01*
Y376131D02*
Y372746D01*
Y374439D01*
X225423D01*
X223731Y376131D01*
X215267Y367667D02*
Y364282D01*
Y365975D01*
X225423D01*
X223731Y367667D01*
X442593Y283849D02*
X432437D01*
Y288927D01*
X434129Y290620D01*
X437515D01*
X439208Y288927D01*
Y283849D01*
Y287235D02*
X442593Y290620D01*
Y294006D02*
Y297391D01*
Y295699D01*
X432437D01*
X434129Y294006D01*
Y302470D02*
X432437Y304163D01*
Y307548D01*
X434129Y309241D01*
X440901D01*
X442593Y307548D01*
Y304163D01*
X440901Y302470D01*
X434129D01*
X345231Y334647D02*
Y344803D01*
X350309D01*
X352002Y343111D01*
Y339725D01*
X350309Y338032D01*
X345231D01*
X348617D02*
X352002Y334647D01*
X355388Y336339D02*
X357081Y334647D01*
X360466D01*
X362159Y336339D01*
Y343111D01*
X360466Y344803D01*
X357081D01*
X355388Y343111D01*
Y341418D01*
X357081Y339725D01*
X362159D01*
X278763Y189021D02*
X268607D01*
Y194099D01*
X270299Y195792D01*
X273685D01*
X275378Y194099D01*
Y189021D01*
Y192407D02*
X278763Y195792D01*
X268607Y199178D02*
Y205949D01*
X270299D01*
X277071Y199178D01*
X278763D01*
X266067Y123399D02*
X276223D01*
Y118321D01*
X274531Y116628D01*
X271145D01*
X269452Y118321D01*
Y123399D01*
Y120013D02*
X266067Y116628D01*
X276223Y106471D02*
X274531Y109857D01*
X271145Y113242D01*
X267759D01*
X266067Y111549D01*
Y108164D01*
X267759Y106471D01*
X269452D01*
X271145Y108164D01*
Y113242D01*
X161081Y196217D02*
Y206373D01*
X166159D01*
X167852Y204681D01*
Y201295D01*
X166159Y199602D01*
X161081D01*
X164467D02*
X167852Y196217D01*
X178009Y206373D02*
X171238D01*
Y201295D01*
X174623Y202988D01*
X176316D01*
X178009Y201295D01*
Y197909D01*
X176316Y196217D01*
X172931D01*
X171238Y197909D01*
X152191Y50167D02*
Y60323D01*
X157269D01*
X158962Y58631D01*
Y55245D01*
X157269Y53552D01*
X152191D01*
X155577D02*
X158962Y50167D01*
X167426D02*
Y60323D01*
X162348Y55245D01*
X169119D01*
X194101Y114937D02*
Y125093D01*
X199179D01*
X200872Y123401D01*
Y120015D01*
X199179Y118322D01*
X194101D01*
X197487D02*
X200872Y114937D01*
X204258Y123401D02*
X205951Y125093D01*
X209336D01*
X211029Y123401D01*
Y121708D01*
X209336Y120015D01*
X207643D01*
X209336D01*
X211029Y118322D01*
Y116629D01*
X209336Y114937D01*
X205951D01*
X204258Y116629D01*
X101814Y258447D02*
Y268603D01*
X106892D01*
X108585Y266911D01*
Y263525D01*
X106892Y261832D01*
X101814D01*
X105199D02*
X108585Y258447D01*
X111971D02*
X115356D01*
X113663D01*
Y268603D01*
X111971Y266911D01*
X115316Y421386D02*
X100081D01*
Y429003D01*
X102620Y431543D01*
X107698D01*
X110238Y429003D01*
Y421386D01*
X115316Y446778D02*
Y436621D01*
X105159Y446778D01*
X102620D01*
X100081Y444239D01*
Y439160D01*
X102620Y436621D01*
X32388Y253368D02*
Y268603D01*
X40006D01*
X42545Y266063D01*
Y260985D01*
X40006Y258446D01*
X32388D01*
X47623Y253368D02*
X52702D01*
X50163D01*
Y268603D01*
X47623Y266063D01*
X451062Y215263D02*
X447677D01*
X449369D01*
Y206799D01*
X447677Y205107D01*
X445984D01*
X444291Y206799D01*
X459526Y205107D02*
Y215263D01*
X454448Y210185D01*
X461219D01*
X38312Y333373D02*
X34927D01*
X36619D01*
Y324909D01*
X34927Y323217D01*
X33234D01*
X31541Y324909D01*
X41698Y331681D02*
X43391Y333373D01*
X46776D01*
X48469Y331681D01*
Y329988D01*
X46776Y328295D01*
X45083D01*
X46776D01*
X48469Y326602D01*
Y324909D01*
X46776Y323217D01*
X43391D01*
X41698Y324909D01*
X372322Y38733D02*
X368937D01*
X370629D01*
Y30269D01*
X368937Y28577D01*
X367244D01*
X365551Y30269D01*
X382479Y28577D02*
X375708D01*
X382479Y35348D01*
Y37041D01*
X380786Y38733D01*
X377401D01*
X375708Y37041D01*
X214119Y309621D02*
X209040D01*
X211579D01*
Y296925D01*
X209040Y294386D01*
X206501D01*
X203962Y296925D01*
X219197Y294386D02*
X224275D01*
X221736D01*
Y309621D01*
X219197Y307082D01*
M02*
